<svg xmlns="http://www.w3.org/2000/svg" width="35" height="35" viewBox="0 0 35 35">
  <g id="_2" data-name="2" transform="translate(-5571.674 -2948)">
    <rect id="Rectangle_454" data-name="Rectangle 454" width="35" height="35" rx="11" transform="translate(5571.674 2948)" fill="#f3f3fc"/>
    <path id="attribution-pencil" d="M5.626,10h.994a2.5,2.5,0,0,0,1.769-.731L14.452,3.2A1.874,1.874,0,0,0,11.8.551L5.732,6.62A2.477,2.477,0,0,0,5,8.389v.994a.627.627,0,0,0,.625.625Zm7.945-8.57a.634.634,0,0,1,0,.888l-.806.806-.881-.881.806-.806a.622.622,0,0,1,.881,0ZM6.251,8.383A1.229,1.229,0,0,1,6.619,7.5l4.375-4.375.881.881L7.5,8.383a1.24,1.24,0,0,1-.881.369H6.251ZM15,14.377a.627.627,0,0,1-.625.625,2.1,2.1,0,0,1-1.769-1.219c-.313-.469-.469-.656-.731-.656-.319,0-.563.275-.944.719A2.5,2.5,0,0,1,9.038,15a2.441,2.441,0,0,1-1.875-1.169c-.363-.438-.6-.706-.913-.706-.244,0-.394.156-.725.569A2.874,2.874,0,0,1,3.125,15a3.125,3.125,0,0,1,0-6.251.625.625,0,1,1,0,1.25,1.875,1.875,0,0,0,0,3.75,1.683,1.683,0,0,0,1.431-.85,2.155,2.155,0,0,1,1.694-1.025,2.431,2.431,0,0,1,1.875,1.169c.363.438.6.706.913.706s.563-.275.944-.719a2.5,2.5,0,0,1,1.894-1.156A2.176,2.176,0,0,1,13.645,13.1c.313.469.469.656.731.656A.627.627,0,0,1,15,14.377Z" transform="translate(5581.674 2957.998)" fill="#43465e"/>
  </g>
</svg>
