<svg xmlns="http://www.w3.org/2000/svg" width="48" height="48" viewBox="0 0 48 48">
  <g id="_324" data-name="324" transform="translate(-8704 -1538)">
    <rect id="Rectangle_399" data-name="Rectangle 399" width="48" height="48" rx="14" transform="translate(8704 1538)" fill="#fff"/>
    <path id="Path_707" data-name="Path 707" d="M197.164,0a17.1,17.1,0,0,1,1.966.124A3.079,3.079,0,0,1,201.908,2.9a13.5,13.5,0,0,1,0,4.118,3.043,3.043,0,0,1-2.78,2.768,13.564,13.564,0,0,1-4.151-.007,3.054,3.054,0,0,1-2.752-2.8,14.019,14.019,0,0,1,.022-4.167A3.139,3.139,0,0,1,195.169.1c.627-.07,1.264-.063,2-.1m-3.5,4.931h.041c0,.486-.019.973,0,1.458a1.722,1.722,0,0,0,1.684,1.874,20.125,20.125,0,0,0,3.33.006A1.611,1.611,0,0,0,200.4,6.583a20.4,20.4,0,0,0,0-3.252,1.626,1.626,0,0,0-1.7-1.694,21.355,21.355,0,0,0-3.259,0,1.629,1.629,0,0,0-1.675,1.5c-.08.591-.07,1.194-.1,1.792" transform="translate(8537.402 1551)" fill="#e74c3c"/>
    <path id="Path_708" data-name="Path 708" d="M4.823,201.185a19.174,19.174,0,0,1-1.992-.15,3.063,3.063,0,0,1-2.664-2.662,13.9,13.9,0,0,1-.019-4.19A3.044,3.044,0,0,1,2.915,191.4a13.576,13.576,0,0,1,4.151,0,3.054,3.054,0,0,1,2.771,2.806,14.022,14.022,0,0,1-.024,4.167,3.137,3.137,0,0,1-2.9,2.711c-.635.072-1.28.065-2.089.1m.165-1.618s0,.009,0,.013c.487,0,.975.021,1.461,0A1.714,1.714,0,0,0,8.3,197.9a20.075,20.075,0,0,0,.007-3.323,1.612,1.612,0,0,0-1.689-1.671,20.762,20.762,0,0,0-3.259,0,1.628,1.628,0,0,0-1.7,1.692,20.534,20.534,0,0,0,0,3.252,1.677,1.677,0,0,0,1.72,1.708,14.071,14.071,0,0,0,1.606.011" transform="translate(8717 1372.189)" fill="#e74c3c"/>
    <path id="Path_709" data-name="Path 709" d="M.842,5.386a4.936,4.936,0,1,1,4.929,4.94A4.924,4.924,0,0,1,.842,5.386M2.4,5.4A3.376,3.376,0,1,0,5.78,2.031,3.368,3.368,0,0,0,2.4,5.4" transform="translate(8716.213 1550.557)" fill="#27ae60"/>
    <path id="Path_710" data-name="Path 710" d="M197.867,192.136a4.926,4.926,0,1,1-4.952,4.891,4.923,4.923,0,0,1,4.952-4.891m-.023,8.295a3.369,3.369,0,1,0-3.369-3.376,3.368,3.368,0,0,0,3.369,3.376" transform="translate(8536.623 1371.351)" fill="#27ae60"/>
    <rect id="Rectangle_400" data-name="Rectangle 400" width="22.469" height="22.374" transform="translate(8717 1551)" fill="none"/>
  </g>
</svg>
