<svg xmlns="http://www.w3.org/2000/svg" width="37" height="37" viewBox="0 0 37 37">
  <g id="Group_1096" data-name="Group 1096" transform="translate(-368 -566)">
    <circle id="Ellipse_89" data-name="Ellipse 89" cx="18.5" cy="18.5" r="18.5" transform="translate(368 566)" fill="#f3f3fc"/>
    <path id="attachment" d="M20.828,9.917,12.844,17.9a4.93,4.93,0,0,1-6.807.273,4.766,4.766,0,0,1-.1-6.843l6.8-6.8A2.845,2.845,0,1,1,16.76,8.553l-6.8,6.8a.944.944,0,0,1-1.3,0,.925.925,0,0,1,0-1.3L14.1,8.616A1,1,0,0,0,12.673,7.2L7.236,12.635a2.927,2.927,0,0,0,0,4.133,2.992,2.992,0,0,0,4.132,0l6.8-6.8A4.845,4.845,0,1,0,11.313,3.12l-6.8,6.8a6.765,6.765,0,0,0,.148,9.713A6.607,6.607,0,0,0,9.223,21.4a7.122,7.122,0,0,0,5.035-2.087l7.984-7.984a1,1,0,1,0-1.414-1.414Z" transform="translate(373.47 573.301)" fill="#1d3f43"/>
  </g>
</svg>
