<svg xmlns="http://www.w3.org/2000/svg" xmlns:xlink="http://www.w3.org/1999/xlink" width="106.562" height="104.067" viewBox="0 0 106.562 104.067">
  <defs>
    <clipPath id="clip-path">
      <path id="Path_16" data-name="Path 16" d="M52.033,0a51.986,51.986,0,1,0,48.947,34.341L90.355,45.251a39.265,39.265,0,0,1,.585,6.783A38.665,38.665,0,0,1,84.3,73.778a39.058,39.058,0,0,1-17.13,14.111A38.839,38.839,0,0,1,30.289,84.3a39.058,39.058,0,0,1-14.111-17.13A38.839,38.839,0,0,1,19.763,30.29,39.058,39.058,0,0,1,36.893,16.18a38.835,38.835,0,0,1,36.123,3.084l9.31-9.539A51.8,51.8,0,0,0,52.033,0Z" transform="translate(0 -0.001)" fill="none"/>
    </clipPath>
    <linearGradient id="linear-gradient" x1="0.141" y1="0.859" x2="0.142" y2="0.859" gradientUnits="objectBoundingBox">
      <stop offset="0" stop-color="#22b573"/>
      <stop offset="1" stop-color="#22a19f"/>
    </linearGradient>
    <clipPath id="clip-path-2">
      <path id="Path_17" data-name="Path 17" d="M353.088,153.918l-14.75-14.581-14.548,14.382L353.1,182.693l56-55.222-14.548-14.363Z" transform="translate(-323.789 -113.109)" fill="none"/>
    </clipPath>
    <linearGradient id="linear-gradient-2" x1="-0.082" y1="1.083" x2="-0.081" y2="1.083" xlink:href="#linear-gradient"/>
  </defs>
  <g id="Group_38" data-name="Group 38" transform="translate(0 -0.001)">
    <g id="Group_35" data-name="Group 35" transform="translate(0 0.001)">
      <g id="Group_34" data-name="Group 34" transform="translate(0 0)" clip-path="url(#clip-path)">
        <rect id="Rectangle_130" data-name="Rectangle 130" width="145.051" height="145.051" transform="translate(-49.054 34.679) rotate(-35.259)" fill="url(#linear-gradient)"/>
      </g>
    </g>
    <g id="Group_37" data-name="Group 37" transform="translate(21.246 7.423)">
      <g id="Group_36" data-name="Group 36" clip-path="url(#clip-path-2)">
        <rect id="Rectangle_131" data-name="Rectangle 131" width="109.834" height="106.07" transform="translate(-32.8 23.188) rotate(-35.259)" fill="url(#linear-gradient-2)"/>
      </g>
    </g>
  </g>
</svg>
