<svg xmlns="http://www.w3.org/2000/svg" width="22" height="20.542" viewBox="0 0 22 20.542">
  <g id="coupon" transform="translate(0 -16.97)">
    <path id="Path_961" data-name="Path 961" d="M184.789,97.8a.644.644,0,1,0,.445-.743A.644.644,0,0,0,184.789,97.8Z" transform="translate(-176.836 -76.615)" fill="#dbdbdb"/>
    <path id="Path_962" data-name="Path 962" d="M21.838,30.183c-3.507-10.209-3.266-9.51-3.281-9.544a3.292,3.292,0,0,0-1.944-1.8c-.125-.043-7.184-1.694-7.388-1.765a2.169,2.169,0,0,0-2.105.466L1.07,23.1A3.327,3.327,0,0,0,0,25.547V35.4a2.1,2.1,0,0,0,2.1,2.107H15.038a2.1,2.1,0,0,0,2.1-2.107v-.953l3.608-1.544A2.094,2.094,0,0,0,21.838,30.183Zm-6.8,6.04H2.1a.813.813,0,0,1-.806-.818V25.547a2.035,2.035,0,0,1,.654-1.495c5.183-4.769,1.979-1.794,6.07-5.567a.818.818,0,0,1,.8-.188c.261.078-.2-.3,6.378,5.755a2.035,2.035,0,0,1,.654,1.494V35.4A.813.813,0,0,1,15.038,36.223Zm5.194-4.5-3.1,1.326v-7.5a3.327,3.327,0,0,0-1.07-2.443l-4.505-4.146,4.662,1.106a2,2,0,0,1,1.144,1.064c3.5,10.19,3.264,9.506,3.28,9.541A.8.8,0,0,1,20.232,31.724Z" fill="#dbdbdb"/>
    <path id="Path_963" data-name="Path 963" d="M152.149,201.175a.645.645,0,0,0-.844.345L148.167,209a.645.645,0,1,0,1.189.5l3.138-7.478A.645.645,0,0,0,152.149,201.175Z" transform="translate(-141.752 -176.242)" fill="#dbdbdb"/>
    <path id="Path_964" data-name="Path 964" d="M81.19,195.273a2.042,2.042,0,1,0-2.031,2.256A2.155,2.155,0,0,0,81.19,195.273Zm-2.031.967a1,1,0,1,1,.742-.967A.889.889,0,0,1,79.159,196.24Z" transform="translate(-73.814 -168.482)" fill="#dbdbdb"/>
    <path id="Path_965" data-name="Path 965" d="M230.516,312.011a2.269,2.269,0,1,0,2.031,2.256A2.155,2.155,0,0,0,230.516,312.011Zm0,3.223a1,1,0,1,1,.742-.967A.889.889,0,0,1,230.516,315.234Z" transform="translate(-218.667 -282.363)" fill="#dbdbdb"/>
  </g>
</svg>
