<svg xmlns="http://www.w3.org/2000/svg" width="37.962" height="35.485" viewBox="0 0 37.962 35.485">
  <g id="Group_1106" data-name="Group 1106" transform="translate(-1846 -521)">
    <path id="Path_772" data-name="Path 772" d="M42.049,16.443V33.069a3.5,3.5,0,0,1-3.5,3.5H22.616l-6.371,4.723a.572.572,0,0,1-.913-.459V36.568h-1.74a3.5,3.5,0,0,1-3.5-3.5V16.443c0-1.933,1.567-3.5,4.467-3.5H39.517c.966,0,2.533,1.567,2.533,3.5Z" transform="translate(1841.912 515.078)" fill="#5e5eef"/>
    <g id="Group_325" data-name="Group 325" transform="translate(1868.948 529.073)">
      <path id="Path_773" data-name="Path 773" d="M32.752,15.534h-.605a.631.631,0,0,1,0-1.262h.605a.631.631,0,1,1,0,1.262Z" transform="translate(-31.516 -14.273)" fill="#fff"/>
    </g>
    <g id="Group_326" data-name="Group 326" transform="translate(1872.219 529.073)">
      <path id="Path_774" data-name="Path 774" d="M42.041,15.534H36.283a.631.631,0,0,1,0-1.262h5.758a.631.631,0,0,1,0,1.262Z" transform="translate(-35.652 -14.273)" fill="#fff"/>
    </g>
    <g id="Group_328" data-name="Group 328" transform="translate(1853.1 540.853)">
      <path id="Path_775" data-name="Path 775" d="M12.108,34.3a.631.631,0,0,1-.631-.631V29.8a.631.631,0,1,1,1.262,0v3.873A.631.631,0,0,1,12.108,34.3Z" transform="translate(-11.478 -29.168)" fill="#fff"/>
    </g>
    <g id="Group_329" data-name="Group 329" transform="translate(1853.1 537.713)">
      <path id="Path_776" data-name="Path 776" d="M12.108,27.116a.631.631,0,0,1-.631-.631v-.656a.631.631,0,1,1,1.262,0v.656A.631.631,0,0,1,12.108,27.116Z" transform="translate(-11.478 -25.198)" fill="#fff"/>
    </g>
    <path id="Path_777" data-name="Path 777" d="M43.435,16.524V33.152a3.5,3.5,0,0,1-3.5,3.5H24l-6.367,4.727a.576.576,0,0,1-.917-.463V39.771l5.548-4.117a1.088,1.088,0,0,1,.649-.214H38.49a3.5,3.5,0,0,0,3.5-3.5V15.313a3.483,3.483,0,0,0-.614-1.977,3.484,3.484,0,0,1,2.061,3.188Z" transform="translate(1840.527 514.996)" fill="#4242e5"/>
    <path id="Path_778" data-name="Path 778" d="M14.346,31.972V19.319c0-1.172.95-2.122,3.089-2.122H37.629a2.145,2.145,0,0,1,1.946,2.122V31.972a2.122,2.122,0,0,1-2.122,2.122H16.468a2.122,2.122,0,0,1-2.122-2.122Z" transform="translate(1841.023 514.188)" fill="#fff"/>
    <path id="Path_779" data-name="Path 779" d="M39.6,19.329V31.978A2.116,2.116,0,0,1,37.48,34.1H16.49a2.121,2.121,0,0,1-2.027-1.48,2.032,2.032,0,0,0,.4.034H35.84a2.123,2.123,0,0,0,2.119-2.128V17.874a2.3,2.3,0,0,0-.093-.639A2.131,2.131,0,0,1,39.6,19.329Z" transform="translate(1840.998 514.18)" fill="#e4e3ff"/>
    <path id="Path_780" data-name="Path 780" d="M34.3,25.662a5.449,5.449,0,1,1-5.454-5.454A5.448,5.448,0,0,1,34.3,25.662Z" transform="translate(1839.128 513.559)" fill="#5bc658"/>
    <g id="Group_335" data-name="Group 335" transform="translate(1863.614 535.616)">
      <path id="Path_781" data-name="Path 781" d="M25.11,26.34H25.1a.338.338,0,0,1-.326-.35,4.359,4.359,0,0,1,1.788-3.376.338.338,0,1,1,.4.546,3.689,3.689,0,0,0-1.512,2.855.338.338,0,0,1-.338.326Z" transform="translate(-24.772 -22.547)" fill="#fff"/>
    </g>
    <g id="Group_337" data-name="Group 337" transform="translate(1866.789 534.842)">
      <path id="Path_782" data-name="Path 782" d="M28.794,22.065a.339.339,0,0,1,.262-.4,4.447,4.447,0,0,1,.817-.1c.18.038.342.143.347.33a.338.338,0,0,1-.33.347,3.882,3.882,0,0,0-.694.082.34.34,0,0,1-.4-.262Z" transform="translate(-28.787 -21.568)" fill="#fff"/>
    </g>
    <path id="Path_783" data-name="Path 783" d="M34.571,25.972a5.448,5.448,0,0,1-9.891,3.15,5.447,5.447,0,0,0,7.812-7.434A5.436,5.436,0,0,1,34.571,25.972Z" transform="translate(1838.861 513.249)" fill="#49a247"/>
    <path id="Path_784" data-name="Path 784" d="M32.084,27.163,29.7,28.845a.921.921,0,0,1-1.452-.753V24.728a.921.921,0,0,1,1.452-.753l2.387,1.682a.921.921,0,0,1,0,1.506Z" transform="translate(1838.116 512.806)" fill="#fff"/>
    <path id="Path_785" data-name="Path 785" d="M32.08,27.631,29.7,29.316a.93.93,0,0,1-1.45-.594.886.886,0,0,0,.953-.055L31.6,26.982a.9.9,0,0,0,.373-.925l.111.069a.916.916,0,0,1,0,1.505Z" transform="translate(1838.114 512.335)" fill="#e4e3ff"/>
    <path id="Path_786" data-name="Path 786" d="M20.07,5.346l2.216,5.234a1.6,1.6,0,0,1-.484,1.885A24.479,24.479,0,0,0,17.6,16.805a1.971,1.971,0,0,1-1.951.825,24.414,24.414,0,0,0-6.035-.005,1.6,1.6,0,0,1-1.69-.964L5.7,11.427Z" transform="translate(1842.83 516.667)" fill="#474646"/>
    <path id="Path_787" data-name="Path 787" d="M20.794,5.35l2.213,5.228a1.6,1.6,0,0,1-.48,1.883,24.647,24.647,0,0,0-4.2,4.345,1.993,1.993,0,0,1-1.953.827,24.579,24.579,0,0,0-6.038-.009,1.623,1.623,0,0,1-1.164-.3,1.965,1.965,0,0,0,.641.04,24.167,24.167,0,0,1,6.038.008,2.032,2.032,0,0,0,1.953-.827A24.234,24.234,0,0,1,22,12.2a1.6,1.6,0,0,0,.48-1.883L20.444,5.5Z" transform="translate(1842.106 516.666)" fill="#2d2c2c"/>
    <path id="Path_788" data-name="Path 788" d="M20.977,7.483l.222.524-6.155,4.7a1.144,1.144,0,0,1-.552.234L6.835,14.087l-.222-.524L14.27,12.42a1.244,1.244,0,0,0,.552-.234Z" transform="translate(1842.64 516.22)" fill="#2d2c2c"/>
    <path id="Path_789" data-name="Path 789" d="M10.4,19.481a.333.333,0,0,1-.437-.177l-.29-.685a.333.333,0,0,1,.613-.26l.29.685A.333.333,0,0,1,10.4,19.481Z" transform="translate(1842.006 513.988)" fill="#fff"/>
    <g id="Group_346" data-name="Group 346" transform="translate(1851.116 530.885)">
      <path id="Path_790" data-name="Path 790" d="M9.536,17.452a.333.333,0,0,1-.437-.177L9,17.028a.333.333,0,1,1,.613-.26l.1.247A.333.333,0,0,1,9.536,17.452Z" transform="translate(-8.969 -16.565)" fill="#fff"/>
    </g>
    <path id="Path_791" data-name="Path 791" d="M22.163,4.3l.234.553-.005,0a.278.278,0,0,1-.1.315l-8.319,6.358a1.165,1.165,0,0,1-.553.234L3.074,13.308a.3.3,0,0,1-.319-.169l0-.011-.218-.515a.293.293,0,0,0,.321.174L13.2,11.244a1.307,1.307,0,0,0,.553-.234L22.07,4.651a.294.294,0,0,0,.093-.349Z" transform="translate(1843.493 516.885)" fill="#1b1b1b"/>
    <path id="Path_792" data-name="Path 792" d="M22.062,4.6l-8.317,6.355a1.207,1.207,0,0,1-.555.235L2.844,12.738a.3.3,0,0,1-.226-.533l8.313-6.352a1.207,1.207,0,0,1,.554-.235L21.837,4.069a.3.3,0,0,1,.226.533Z" transform="translate(1843.5 516.935)" fill="#474646"/>
    <path id="Path_793" data-name="Path 793" d="M3.965,17.482,2.591,14.235a1.071,1.071,0,0,1,.567-1.4l9.2-3.9a.2.2,0,0,1,.154.365l-9.2,3.9a.673.673,0,0,0-.357.882l1.374,3.247a.2.2,0,0,1-.365.154Z" transform="translate(1843.499 515.919)" fill="#f9b938"/>
    <path id="Path_794" data-name="Path 794" d="M4.939,23.17l1.583-.67a.335.335,0,0,0,.136-.511L5.376,20.318a.8.8,0,0,0-.036-.53.828.828,0,1,0-1.526.646.8.8,0,0,0,.355.395l.308,2.083a.335.335,0,0,0,.461.258Z" transform="translate(1843.239 513.752)" fill="#f9b938"/>
    <path id="Path_795" data-name="Path 795" d="M4.939,23.174l.323-.137A.335.335,0,0,1,4.8,22.78l-.276-1.864a.494.494,0,0,0-.163-.308.815.815,0,0,1-.224-.306.828.828,0,0,1,.286-1,.59.59,0,0,0-.172.049.831.831,0,0,0-.437,1.087.8.8,0,0,0,.355.395l.308,2.083a.335.335,0,0,0,.461.258Z" transform="translate(1843.239 513.748)" fill="#ecb021"/>
    <path id="Path_796" data-name="Path 796" d="M15.773,8.565c.13.307-.345.8-1.053,1.1s-1.4.3-1.531-.006.345-.8,1.062-1.1,1.393-.3,1.523.009Z" transform="translate(1841.269 516.042)" fill="#f9b938"/>
  </g>
</svg>
