<svg xmlns="http://www.w3.org/2000/svg" xmlns:xlink="http://www.w3.org/1999/xlink" width="30" height="30" viewBox="0 0 30 30">
  <defs>
    <clipPath id="clip-path">
      <rect id="Rectangle_252" data-name="Rectangle 252" width="13.508" height="15.006" fill="#f6f6f6"/>
    </clipPath>
  </defs>
  <g id="Group_134" data-name="Group 134" transform="translate(-379 -467)">
    <rect id="Rectangle_257" data-name="Rectangle 257" width="30" height="30" rx="15" transform="translate(379 467)" fill="#e74c3c"/>
    <g id="Group_118" data-name="Group 118" transform="translate(387.246 474.499)">
      <g id="Group_114" data-name="Group 114" clip-path="url(#clip-path)">
        <path id="Path_625" data-name="Path 625" d="M.813,4.531a2.683,2.683,0,0,1-.382-.105A.747.747,0,0,1,.751,3c.932,0,1.864,0,2.8,0h.209c0-.467,0-.916,0-1.366a2.317,2.317,0,0,1,.04-.471A1.45,1.45,0,0,1,5.189.011C6.232,0,7.276,0,8.319.011A1.46,1.46,0,0,1,9.747,1.442c.013.451,0,.9.005,1.354V3h.209c.932,0,1.864,0,2.8,0A.747.747,0,0,1,13,4.459a2.787,2.787,0,0,1-.3.062c-.022.226-.047.462-.066.7-.181,2.183-.358,4.367-.543,6.55a11.865,11.865,0,0,1-.176,1.568,2.149,2.149,0,0,1-2.066,1.655q-3.095.024-6.19,0A2.23,2.23,0,0,1,1.5,12.874c-.079-1.175-.191-2.347-.288-3.521Q1.085,7.76.951,6.166C.9,5.618.859,5.07.813,4.531m1.518-.016c0,.067,0,.124,0,.18.064.765.132,1.529.195,2.293Q2.766,9.877,3,12.766a.75.75,0,0,0,.783.739q2.97.006,5.941,0a.744.744,0,0,0,.78-.722c.088-1.033.17-2.066.256-3.1q.169-2.057.342-4.114c.029-.348.056-.7.084-1.055Zm5.917-3H5.262V2.988H8.248Z" transform="translate(0 0)" fill="#f6f6f6"/>
        <path id="Path_626" data-name="Path 626" d="M4.5,9c0-.749,0-1.5,0-2.248a.747.747,0,0,1,1.448-.26A.948.948,0,0,1,6,6.8q0,2.2,0,4.408a.751.751,0,0,1-1.485.2,1.07,1.07,0,0,1-.016-.227c0-.725,0-1.451,0-2.177" transform="translate(0 0)" fill="#f6f6f6"/>
        <path id="Path_627" data-name="Path 627" d="M9.005,9c0,.749,0,1.5,0,2.248a.737.737,0,0,1-.554.725.72.72,0,0,1-.83-.334.969.969,0,0,1-.113-.433Q7.5,9,7.5,6.8a.753.753,0,1,1,1.5.007q0,1.1,0,2.195" transform="translate(0 0)" fill="#f6f6f6"/>
      </g>
    </g>
  </g>
</svg>
