<svg xmlns="http://www.w3.org/2000/svg" width="20.119" height="18.462" viewBox="0 0 20.119 18.462">
  <path id="graduation-cap" d="M18.479,24.419,12.3,21.474a4.381,4.381,0,0,0-4.429-.038L1.618,24.419c-.023.012-.048.024-.07.038a3.094,3.094,0,0,0,.07,5.411l1.724.822V34.8A4.2,4.2,0,0,0,6.292,38.8a13.041,13.041,0,0,0,3.756.513,13.042,13.042,0,0,0,3.756-.509,4.2,4.2,0,0,0,2.95-4.005V30.688l1.677-.8V36.8a.838.838,0,1,0,1.677,0V26.741A2.807,2.807,0,0,0,18.479,24.419ZM15.078,34.8a2.515,2.515,0,0,1-1.76,2.4,11.394,11.394,0,0,1-3.269.438A11.394,11.394,0,0,1,6.779,37.2a2.515,2.515,0,0,1-1.76-2.4V31.489L7.8,32.813a4.419,4.419,0,0,0,2.268.619,4.191,4.191,0,0,0,2.16-.582l2.851-1.362Zm2.683-6.447-6.322,3.018A2.761,2.761,0,0,1,8.6,31.335L2.411,28.393a1.418,1.418,0,0,1-.031-2.48l6.283-3a2.766,2.766,0,0,1,2.842.038l6.182,2.945a1.448,1.448,0,0,1,.745,1.249,1.425,1.425,0,0,1-.671,1.211Z" transform="translate(0.011 -20.854)" fill="#43465e"/>
</svg>
