<svg xmlns="http://www.w3.org/2000/svg" width="32.061" height="33" viewBox="0 0 32.061 33">
  <g id="Group_1109" data-name="Group 1109" transform="translate(-1849 -661)">
    <path id="Path_868" data-name="Path 868" d="M29.823,5.9V32.1a3.4,3.4,0,0,1-3.4,3.4H6.586a3.406,3.406,0,0,1-3.4-3.4V5.9a3.406,3.406,0,0,1,3.4-3.4H26.42a3.4,3.4,0,0,1,3.4,3.4Z" transform="translate(1845.817 658.5)" fill="#e4e3ff"/>
    <path id="Path_869" data-name="Path 869" d="M39.692,5.9V32.1a3.4,3.4,0,0,1-3.4,3.4H34.763a3.406,3.406,0,0,0,3.4-3.4V5.9a3.406,3.406,0,0,0-3.4-3.4h1.526a3.4,3.4,0,0,1,3.4,3.4Z" transform="translate(1835.948 658.5)" fill="#d0d0f7"/>
    <path id="Path_870" data-name="Path 870" d="M15.385,7.636v6.309a1.136,1.136,0,0,1-1.136,1.136H8.318a1.136,1.136,0,0,1-1.136-1.136V7.636A1.136,1.136,0,0,1,8.318,6.5h5.931a1.136,1.136,0,0,1,1.136,1.136Z" transform="translate(1844.567 657.25)" fill="#a2a2f9"/>
    <g id="Group_431" data-name="Group 431" transform="translate(1852.642 666.242)">
      <path id="Path_871" data-name="Path 871" d="M8.824,11.842A.344.344,0,0,1,8.48,11.5V10.469a.344.344,0,0,1,.688,0V11.5A.344.344,0,0,1,8.824,11.842Z" transform="translate(-8.48 -10.125)" fill="#fff"/>
    </g>
    <g id="Group_433" data-name="Group 433" transform="translate(1852.642 664.716)">
      <path id="Path_872" data-name="Path 872" d="M8.824,8.875a.344.344,0,0,1-.344-.344V8.248a.344.344,0,1,1,.688,0v.283A.344.344,0,0,1,8.824,8.875Z" transform="translate(-8.48 -7.905)" fill="#fff"/>
    </g>
    <path id="Path_873" data-name="Path 873" d="M15.4,7.647v6.311a1.135,1.135,0,0,1-1.134,1.134H8.333a1.135,1.135,0,0,1-1.1-.859.975.975,0,0,0,.247.028h5.933a1.137,1.137,0,0,0,1.134-1.141v-6.3a1.205,1.205,0,0,0-.034-.275A1.135,1.135,0,0,1,15.4,7.647Z" transform="translate(1844.552 657.237)" fill="#7979f7"/>
    <path id="Path_874" data-name="Path 874" d="M10.235,31.537H26.873a.495.495,0,1,0,0-.99H10.235a.495.495,0,1,0,0,.99Z" transform="translate(1843.768 649.735)" fill="#fff"/>
    <path id="Path_875" data-name="Path 875" d="M10.235,27.127H26.873a.495.495,0,1,0,0-.99H10.235a.495.495,0,1,0,0,.99Z" transform="translate(1843.768 651.113)" fill="#fff"/>
    <path id="Path_876" data-name="Path 876" d="M16.014,44.763h8.692a.495.495,0,1,0,0-.99H16.014a.495.495,0,1,0,0,.99Z" transform="translate(1841.962 645.602)" fill="#fff"/>
    <path id="Path_877" data-name="Path 877" d="M10.235,40.354H26.873a.5.5,0,1,0,0-.99H10.235a.5.5,0,0,0,0,.99Z" transform="translate(1843.768 646.98)" fill="#fff"/>
    <path id="Path_878" data-name="Path 878" d="M10.235,22.719H26.873a.5.5,0,1,0,0-.99H10.235a.5.5,0,0,0,0,.99Z" transform="translate(1843.768 652.491)" fill="#fff"/>
    <g id="Group_441" data-name="Group 441" transform="translate(1862.102 668.873)">
      <path id="Path_879" data-name="Path 879" d="M22.735,14.942h8.044a.5.5,0,1,0,0-.99H22.735a.5.5,0,0,0,0,.99Z" transform="translate(-22.24 -13.952)" fill="#fff"/>
    </g>
    <g id="Group_442" data-name="Group 442" transform="translate(1862.102 665.842)">
      <path id="Path_880" data-name="Path 880" d="M22.735,10.533h8.044a.5.5,0,1,0,0-.99H22.735a.5.5,0,0,0,0,.99Z" transform="translate(-22.24 -9.543)" fill="#fff"/>
    </g>
    <path id="Path_881" data-name="Path 881" d="M10.235,35.945H26.873a.495.495,0,1,0,0-.99H10.235a.495.495,0,1,0,0,.99Z" transform="translate(1843.768 648.358)" fill="#fff"/>
    <path id="Path_882" data-name="Path 882" d="M37.414,22.7V33.6a6.463,6.463,0,1,1,0-10.9Z" transform="translate(1838.226 652.504)" fill="#d0d0f7"/>
    <path id="Path_883" data-name="Path 883" d="M46.5,36.457a2.273,2.273,0,0,1-3.3,3.131,18.852,18.852,0,0,1-2-2.945,5.155,5.155,0,0,0,1.426-.96,5.069,5.069,0,0,0,1.03-1.373A18.851,18.851,0,0,1,46.5,36.457Z" transform="translate(1833.934 648.56)" fill="#f9b938"/>
    <g id="Group_447" data-name="Group 447" transform="translate(1879.281 684.783)">
      <path id="Path_884" data-name="Path 884" d="M47.582,37.157a2.55,2.55,0,0,1,.244.3.208.208,0,0,1-.027.267l-.023.022a.211.211,0,0,1-.291-.052,2.111,2.111,0,0,0-.2-.248.208.208,0,0,1,.007-.292A.206.206,0,0,1,47.582,37.157Z" transform="translate(-47.229 -37.094)" fill="#fff"/>
    </g>
    <g id="Group_448" data-name="Group 448" transform="translate(1879.756 685.979)">
      <path id="Path_885" data-name="Path 885" d="M48.21,38.836a.212.212,0,0,1,.239.173,2.507,2.507,0,0,1-.129,1.273.2.2,0,0,1-.052.08.208.208,0,0,1-.336-.225,2.06,2.06,0,0,0,.106-1.062A.212.212,0,0,1,48.21,38.836Z" transform="translate(-47.919 -38.834)" fill="#fff"/>
    </g>
    <path id="Path_886" data-name="Path 886" d="M44.476,34.85a5.172,5.172,0,0,1-.829,1.016l-.013.012a2.081,2.081,0,0,0-.33,2.688,10.967,10.967,0,0,0,.917,1.2,2.275,2.275,0,0,0,.738.518,2.261,2.261,0,0,1-1.751-.7,18.852,18.852,0,0,1-2-2.945,5.155,5.155,0,0,0,1.426-.96,5.069,5.069,0,0,0,1.03-1.373c.277.176.551.358.812.54Z" transform="translate(1833.934 648.559)" fill="#ecb021"/>
    <path id="Path_887" data-name="Path 887" d="M38.624,22.177a6.465,6.465,0,1,1-9.138-.233,6.467,6.467,0,0,1,9.138.233Z" transform="translate(1838.226 652.979)" fill="#474646"/>
    <path id="Path_888" data-name="Path 888" d="M41.276,22.177A6.46,6.46,0,0,1,35.967,33.06a6.465,6.465,0,0,0,.312-12.889,6.455,6.455,0,0,1,5,2.006Z" transform="translate(1835.572 652.98)" fill="#2d2c2c"/>
    <g id="Group_453" data-name="Group 453" transform="translate(1866.479 678.484)">
      <path id="Path_889" data-name="Path 889" d="M30.358,32.929l0,0a.2.2,0,0,1-.281-.017A5.8,5.8,0,0,1,28.686,28.1a.2.2,0,0,1,.393.066,5.4,5.4,0,0,0,1.291,4.489.2.2,0,0,1-.012.277Z" transform="translate(-28.606 -27.932)" fill="#fff"/>
    </g>
    <g id="Group_455" data-name="Group 455" transform="translate(1867.061 675.687)">
      <path id="Path_890" data-name="Path 890" d="M29.79,25.436a.2.2,0,0,1-.316-.233,5.818,5.818,0,0,1,.857-1.273.2.2,0,1,1,.3.264,5.4,5.4,0,0,0-.8,1.186.2.2,0,0,1-.041.056Z" transform="translate(-29.453 -23.863)" fill="#fff"/>
    </g>
    <path id="Path_891" data-name="Path 891" d="M38.13,24.268a4.636,4.636,0,1,1-6.553-.167A4.638,4.638,0,0,1,38.13,24.268Z" transform="translate(1837.395 652.148)" fill="#a2a2f9"/>
    <path id="Path_892" data-name="Path 892" d="M32.431,30.49a4.625,4.625,0,0,0,3.6,1.438,4.636,4.636,0,1,1-1.495-9.092,4.637,4.637,0,0,0-2.1,7.654Z" transform="translate(1837.395 652.145)" fill="#7979f7"/>
    <g id="Group_459" data-name="Group 459" transform="translate(1853.662 668.439)">
      <path id="Path_893" data-name="Path 893" d="M13.787,15.542A.553.553,0,0,0,14.3,14.8a2.308,2.308,0,0,0-4.3,0,.553.553,0,0,0,.518.747Z" transform="translate(-9.964 -13.321)" fill="#fff"/>
    </g>
    <g id="Group_460" data-name="Group 460" transform="translate(1854.747 665.419)">
      <path id="Path_894" data-name="Path 894" d="M13.75,10.028a1.1,1.1,0,1,1-1.107-1.1A1.1,1.1,0,0,1,13.75,10.028Z" transform="translate(-11.543 -8.928)" fill="#fff"/>
    </g>
  </g>
</svg>
