<svg xmlns="http://www.w3.org/2000/svg" width="45" height="45" viewBox="0 0 45 45">
  <g id="Group_1016" data-name="Group 1016" transform="translate(-364 -108)">
    <g id="Group_1015" data-name="Group 1015" transform="translate(364 108)">
      <g id="Rectangle_611" data-name="Rectangle 611" fill="#00b74f" stroke="#e5f8ed" stroke-width="3">
        <rect width="45" height="45" rx="19" stroke="none"/>
        <rect x="1.5" y="1.5" width="42" height="42" rx="17.5" fill="none"/>
      </g>
      <g id="Group_1014" data-name="Group 1014" transform="translate(13.505 16.525)">
        <path id="Path_700" data-name="Path 700" d="M0,5.6a2.261,2.261,0,0,1,.574-.906,15.7,15.7,0,0,1,4.4-3.6A8.584,8.584,0,0,1,8.8,0a8.14,8.14,0,0,1,3.774.871,14.7,14.7,0,0,1,4.294,3.231c.286.3.562.612.826.933a1.17,1.17,0,0,1,0,1.547,16.446,16.446,0,0,1-4.5,3.845A8.741,8.741,0,0,1,9.66,11.59a7.71,7.71,0,0,1-3.541-.528,13.167,13.167,0,0,1-4.248-2.8C1.362,7.775.9,7.244.413,6.739A1.785,1.785,0,0,1,0,6.019ZM8.985,9.683A3.872,3.872,0,1,0,5.119,5.8,3.87,3.87,0,0,0,8.985,9.683" transform="translate(0 0)" fill="#e5f8ed"/>
        <path id="Path_701" data-name="Path 701" d="M135.356,70.317a2.77,2.77,0,1,1,2.769-2.772,2.778,2.778,0,0,1-2.769,2.772" transform="translate(-126.363 -61.737)" fill="#e5f8ed"/>
      </g>
    </g>
  </g>
</svg>
