<svg xmlns="http://www.w3.org/2000/svg" xmlns:xlink="http://www.w3.org/1999/xlink" width="40" height="40" viewBox="0 0 40 40">
  <defs>
    <clipPath id="clip-path">
      <rect id="Rectangle_174" data-name="Rectangle 174" width="9.536" height="18.382" transform="translate(0 0)" fill="#43465e"/>
    </clipPath>
  </defs>
  <g id="Group_1090" data-name="Group 1090" transform="translate(-949 -1475)">
    <g id="Rectangle_567" data-name="Rectangle 567" transform="translate(949 1475)" fill="none" stroke="#43465e" stroke-width="0.4" opacity="0.44">
      <rect width="40" height="40" rx="11" stroke="none"/>
      <rect x="0.2" y="0.2" width="39.6" height="39.6" rx="10.8" fill="none"/>
    </g>
    <g id="Group_890" data-name="Group 890" transform="translate(964 1486)">
      <g id="Group_68" data-name="Group 68" transform="translate(0 0)" clip-path="url(#clip-path)">
        <path id="Path_525" data-name="Path 525" d="M7.964,0c.309.024.618.047.927.073C9.1.09,9.317.11,9.536.13V3.054c-.088,0-.169,0-.251,0-.616.009-1.234,0-1.849.032A1.152,1.152,0,0,0,6.213,4.3c-.036.8-.008,1.6-.008,2.431H9.428L9.006,10H6.2v8.378H2.82V10.011H0V6.739H2.816c0-.092,0-.162,0-.231,0-.856-.018-1.713.017-2.568A4.094,4.094,0,0,1,3.907,1.194,3.736,3.736,0,0,1,5.93.111C6.14.068,6.352.037,6.562,0Z" transform="translate(0 0)" fill="#43465e"/>
      </g>
    </g>
  </g>
</svg>
