<svg xmlns="http://www.w3.org/2000/svg" width="35" height="35" viewBox="0 0 35 35">
  <g id="Group_1" data-name="Group 1" transform="translate(-5571.674 -2897)">
    <rect id="Rectangle_453" data-name="Rectangle 453" width="35" height="35" rx="11" transform="translate(5571.674 2897)" fill="#f3f3fc"/>
    <path id="add-folder" d="M10.909,10.545a.682.682,0,0,1-.682.682H8.864v1.364a.682.682,0,0,1-1.364,0V11.227H6.136a.682.682,0,0,1,0-1.364H7.5V8.5a.682.682,0,1,1,1.364,0V9.864h1.364A.682.682,0,0,1,10.909,10.545Zm5.455-4.773v6.818A3.413,3.413,0,0,1,12.955,16H3.409A3.413,3.413,0,0,1,0,12.591V4.409A3.413,3.413,0,0,1,3.409,1H5.133a2.055,2.055,0,0,1,.914.215L8.2,2.3a.693.693,0,0,0,.3.068h4.451a3.413,3.413,0,0,1,3.409,3.409Zm-15-1.364v.682H14.875a2.045,2.045,0,0,0-1.92-1.364H8.5a2.055,2.055,0,0,1-.914-.215L5.438,2.435a.693.693,0,0,0-.3-.072H3.409A2.045,2.045,0,0,0,1.364,4.409ZM15,12.591V6.455H1.364v6.136a2.045,2.045,0,0,0,2.045,2.045h9.545A2.045,2.045,0,0,0,15,12.591Z" transform="translate(5580.674 2906)" fill="#43465e"/>
  </g>
</svg>
