<svg xmlns="http://www.w3.org/2000/svg" width="43" height="43" viewBox="0 0 43 43">
  <g id="Group_731" data-name="Group 731" transform="translate(-35 -596)">
    <rect id="Rectangle_508" data-name="Rectangle 508" width="43" height="43" rx="15" transform="translate(35 596)" fill="#f3f3fc"/>
    <path id="filter" d="M3,6.25a.75.75,0,0,0,0,1.5Zm0,10a.75.75,0,0,0,0,1.5Zm6,1.5a.75.75,0,0,0,0-1.5Zm12,0a.75.75,0,0,0,0-1.5ZM15,6.25a.75.75,0,0,0,0,1.5Zm6,1.5a.75.75,0,0,0,0-1.5Zm-18,0H6V6.25H3Zm0,10H9v-1.5H3Zm15,0h3v-1.5H18Zm-3-10h6V6.25H15ZM17.25,17A2.25,2.25,0,0,1,15,19.25v1.5A3.75,3.75,0,0,0,18.75,17ZM15,19.25A2.25,2.25,0,0,1,12.75,17h-1.5A3.75,3.75,0,0,0,15,20.75ZM12.75,17A2.25,2.25,0,0,1,15,14.75v-1.5A3.75,3.75,0,0,0,11.25,17ZM15,14.75A2.25,2.25,0,0,1,17.25,17h1.5A3.75,3.75,0,0,0,15,13.25ZM11.25,7A2.25,2.25,0,0,1,9,9.25v1.5A3.75,3.75,0,0,0,12.75,7ZM9,9.25A2.25,2.25,0,0,1,6.75,7H5.25A3.75,3.75,0,0,0,9,10.75ZM6.75,7A2.25,2.25,0,0,1,9,4.75V3.25A3.75,3.75,0,0,0,5.25,7ZM9,4.75A2.25,2.25,0,0,1,11.25,7h1.5A3.75,3.75,0,0,0,9,3.25Z" transform="translate(44.5 605.75)" fill="#1d3f43"/>
  </g>
</svg>
