<svg xmlns="http://www.w3.org/2000/svg" xmlns:xlink="http://www.w3.org/1999/xlink" width="45" height="45" viewBox="0 0 45 45">
  <defs>
    <clipPath id="clip-path">
      <rect id="Rectangle_372" data-name="Rectangle 372" width="15.199" height="11.732" fill="#e5f8ed"/>
    </clipPath>
  </defs>
  <g id="Group_1017" data-name="Group 1017" transform="translate(-364 -232)">
    <g id="Rectangle_611" data-name="Rectangle 611" transform="translate(364 232)" fill="#00b74f" stroke="#e5f8ed" stroke-width="3">
      <rect width="45" height="45" rx="19" stroke="none"/>
      <rect x="1.5" y="1.5" width="42" height="42" rx="17.5" fill="none"/>
    </g>
    <g id="Group_209" data-name="Group 209" transform="translate(378.558 248.518)">
      <g id="Group_208" data-name="Group 208" clip-path="url(#clip-path)">
        <path id="Path_702" data-name="Path 702" d="M15.2,6.055a4.749,4.749,0,0,1-.47.665q-2.335,2.347-4.691,4.674a.946.946,0,1,1-1.364-1.306Q10.2,8.556,11.741,7.032c.059-.059.115-.121.209-.221H1.066A.964.964,0,0,1,.043,6.144.944.944,0,0,1,.878,4.923c.086-.006.173,0,.26,0H11.951c-.09-.1-.149-.16-.21-.221Q10.207,3.171,8.673,1.646A.929.929,0,0,1,8.409.672.894.894,0,0,1,9.123.021a.943.943,0,0,1,.9.3Q11.74,2.032,13.46,3.739c.425.422.86.836,1.269,1.273a5.731,5.731,0,0,1,.471.665Z" transform="translate(0 0)" fill="#e5f8ed"/>
      </g>
    </g>
  </g>
</svg>
