<svg xmlns="http://www.w3.org/2000/svg" width="35" height="35" viewBox="0 0 35 35">
  <g id="Group_1086" data-name="Group 1086" transform="translate(-836 -1088)">
    <rect id="Rectangle_265" data-name="Rectangle 265" width="35" height="35" rx="11" transform="translate(836 1088)" fill="#f3f3fc"/>
    <path id="book-bookmark" d="M13.539,0H5.846A3.851,3.851,0,0,0,2,3.846V15.385a3.08,3.08,0,0,0,3.077,3.077h8.462a3.851,3.851,0,0,0,3.846-3.846V3.846A3.851,3.851,0,0,0,13.539,0Zm2.308,3.846v8.462H6.616V1.539H9.693V7.96a.5.5,0,0,0,.9.3l1.024-1.341L12.64,8.263a.5.5,0,0,0,.9-.3V1.539A2.311,2.311,0,0,1,15.847,3.846ZM5.077,1.68V12.308a3.045,3.045,0,0,0-1.539.428V3.846A2.3,2.3,0,0,1,5.077,1.68Zm8.462,15.244H5.077a1.539,1.539,0,0,1,0-3.077h10.77v.769A2.311,2.311,0,0,1,13.539,16.924Z" transform="translate(844 1096)" fill="#43465e"/>
  </g>
</svg>
