<svg xmlns="http://www.w3.org/2000/svg" width="35" height="35" viewBox="0 0 35 35">
  <g id="Group_1084" data-name="Group 1084" transform="translate(-836 -1206)">
    <rect id="Rectangle_378" data-name="Rectangle 378" width="35" height="35" rx="11" transform="translate(836 1206)" fill="#f3f3fc"/>
    <path id="briefcase" d="M14.25,3h-.825A3.757,3.757,0,0,0,9.75,0H8.25A3.757,3.757,0,0,0,4.575,3H3.75A3.754,3.754,0,0,0,0,6.75v7.5A3.755,3.755,0,0,0,3.75,18h10.5A3.755,3.755,0,0,0,18,14.25V6.75A3.755,3.755,0,0,0,14.25,3Zm-6-1.5h1.5A2.25,2.25,0,0,1,11.862,3H6.138A2.25,2.25,0,0,1,8.25,1.5Zm-4.5,3h10.5A2.25,2.25,0,0,1,16.5,6.75V9H1.5V6.75A2.25,2.25,0,0,1,3.75,4.5Zm10.5,12H3.75A2.25,2.25,0,0,1,1.5,14.25V10.5H8.25v.75a.75.75,0,0,0,1.5,0V10.5H16.5v3.75A2.25,2.25,0,0,1,14.25,16.5Z" transform="translate(845 1215)" fill="#43465e"/>
  </g>
</svg>
