<svg xmlns="http://www.w3.org/2000/svg" width="22.059" height="22.056" viewBox="0 0 22.059 22.056">
  <g id="Group_1111" data-name="Group 1111" transform="translate(-2001.021 -1265)">
    <path id="Path_18" data-name="Path 18" d="M.008,13.609c0-1.24,0-2.481,0-3.721A4.722,4.722,0,0,1,1.821,6.037C3.752,4.453,5.668,2.852,7.6,1.265a5.291,5.291,0,0,1,6.863,0q2.953,2.428,5.893,4.874a4.446,4.446,0,0,1,1.687,3.49c.024,2.713.036,5.427-.009,8.139a4.469,4.469,0,0,1-3.488,4.19,4.85,4.85,0,0,1-.948.093c-.689.013-1.378.008-2.067,0a2.185,2.185,0,0,1-2.286-2.294c-.005-1.111.009-2.222-.008-3.333a3.564,3.564,0,0,0-.142-.99,2.178,2.178,0,0,0-2.123-1.575A2.23,2.23,0,0,0,8.92,15.575a3.692,3.692,0,0,0-.1.843c-.011,1.1,0,2.205-.005,3.308a2.193,2.193,0,0,1-2.334,2.325c-.663,0-1.327-.01-1.99,0a4.463,4.463,0,0,1-4.47-4.336c-.05-1.368-.009-2.739-.009-4.108H.008" transform="translate(2001.02 1265)" fill="#b0b2bb"/>
  </g>
</svg>
