<svg xmlns="http://www.w3.org/2000/svg" width="35" height="35" viewBox="0 0 35 35">
  <g id="Group_1088" data-name="Group 1088" transform="translate(-836 -973.84)">
    <rect id="Rectangle_652" data-name="Rectangle 652" width="35" height="35" rx="11" transform="translate(836 973.84)" fill="#f3f3fc"/>
    <path id="home_7_" data-name="home (7)" d="M17.341,6.9,11.652,1.132a3.721,3.721,0,0,0-5.3,0L.659,6.9A2.279,2.279,0,0,0,0,8.51v7.461a2.265,2.265,0,0,0,2.25,2.28h13.5A2.265,2.265,0,0,0,18,15.971V8.51A2.279,2.279,0,0,0,17.341,6.9ZM11.25,16.731H6.75v-2.99a2.25,2.25,0,1,1,4.5,0Zm5.25-.76a.755.755,0,0,1-.75.76h-3v-2.99a3.75,3.75,0,1,0-7.5,0v2.99h-3a.755.755,0,0,1-.75-.76V8.51a.771.771,0,0,1,.22-.537L7.408,2.209a2.235,2.235,0,0,1,3.183,0L16.28,7.975a.771.771,0,0,1,.22.535Z" transform="translate(844.5 981.819)" fill="#43465e"/>
  </g>
</svg>
