<svg xmlns="http://www.w3.org/2000/svg" width="40" height="40" viewBox="0 0 40 40">
  <g id="Group_1089" data-name="Group 1089" transform="translate(-895 -1475)">
    <g id="Rectangle_566" data-name="Rectangle 566" transform="translate(895 1475)" fill="none" stroke="#43465e" stroke-width="0.4" opacity="0.44">
      <rect width="40" height="40" rx="11" stroke="none"/>
      <rect x="0.2" y="0.2" width="39.6" height="39.6" rx="10.8" fill="none"/>
    </g>
    <g id="instagram" transform="translate(906 1486)">
      <path id="Path_521" data-name="Path 521" d="M9.191,1.656c2.454,0,2.745.009,3.714.054a4.055,4.055,0,0,1,2.763,1,4.028,4.028,0,0,1,1,2.763c.044.969.054,1.26.054,3.714s-.009,2.745-.054,3.714a4.075,4.075,0,0,1-1,2.763,4.027,4.027,0,0,1-2.763,1c-.969.044-1.26.054-3.714.054s-2.745-.009-3.714-.054a4.1,4.1,0,0,1-2.763-1,4.051,4.051,0,0,1-1-2.763c-.044-.969-.054-1.26-.054-3.714s.009-2.745.054-3.714a4.089,4.089,0,0,1,1-2.763,4.037,4.037,0,0,1,2.763-1c.969-.044,1.26-.054,3.714-.054M9.191,0C6.695,0,6.382.011,5.4.055A5.68,5.68,0,0,0,1.543,1.543,5.671,5.671,0,0,0,.055,5.4C.011,6.382,0,6.695,0,9.191S.011,12,.055,12.981a5.686,5.686,0,0,0,1.487,3.859A5.676,5.676,0,0,0,5.4,18.327c.98.044,1.294.055,3.79.055s2.809-.011,3.79-.055a5.684,5.684,0,0,0,3.859-1.487,5.668,5.668,0,0,0,1.487-3.859c.044-.98.055-1.294.055-3.79s-.011-2.809-.055-3.79a5.683,5.683,0,0,0-1.487-3.859A5.681,5.681,0,0,0,12.981.055C12,.011,11.687,0,9.191,0Z" transform="translate(0 0)" fill="#43465e"/>
      <path id="Path_522" data-name="Path 522" d="M10.558,5.838a4.72,4.72,0,1,0,4.72,4.72A4.72,4.72,0,0,0,10.558,5.838Zm0,7.783a3.064,3.064,0,1,1,3.064-3.064A3.064,3.064,0,0,1,10.558,13.621Z" transform="translate(-1.367 -1.367)" fill="#43465e"/>
      <ellipse id="Ellipse_29" data-name="Ellipse 29" cx="1.103" cy="1.103" rx="1.103" ry="1.103" transform="translate(12.995 3.182)" fill="#43465e"/>
    </g>
  </g>
</svg>
