<svg xmlns="http://www.w3.org/2000/svg" width="18.46" height="18.462" viewBox="0 0 18.46 18.462">
  <path id="e-learning" d="M15.307,2.377A3.077,3.077,0,0,0,11.461.117L10.135.5a2.293,2.293,0,0,0-.9.5,2.293,2.293,0,0,0-.9-.5L7,.117a3.077,3.077,0,0,0-3.842,2.26A3.846,3.846,0,0,0,0,6.153v5.384a3.851,3.851,0,0,0,3.846,3.846H8.461v1.538H6.153a.769.769,0,0,0,0,1.538h6.153a.769.769,0,0,0,0-1.538H10V15.383h4.615a3.851,3.851,0,0,0,3.846-3.846V6.153a3.846,3.846,0,0,0-3.154-3.776ZM10,2.715a.769.769,0,0,1,.558-.739L11.884,1.6a1.538,1.538,0,0,1,1.961,1.479V6.105A1.543,1.543,0,0,1,12.73,7.583L10,8.363ZM5.23,1.845A1.533,1.533,0,0,1,6.576,1.6L7.9,1.976a.769.769,0,0,1,.558.739V8.363L5.73,7.583A1.543,1.543,0,0,1,4.615,6.105V3.076A1.528,1.528,0,0,1,5.23,1.845Zm11.691,9.692a2.308,2.308,0,0,1-2.308,2.308H3.846a2.308,2.308,0,0,1-2.308-2.308V6.153A2.308,2.308,0,0,1,3.077,3.987V6.105A3.088,3.088,0,0,0,5.307,9.063l2.654.759a4.63,4.63,0,0,0,2.538,0l2.654-.759a3.088,3.088,0,0,0,2.229-2.958V3.987a2.308,2.308,0,0,1,1.538,2.166Z" transform="translate(0 0.002)" fill="#43465e"/>
</svg>
