<svg xmlns="http://www.w3.org/2000/svg" width="35" height="35" viewBox="0 0 35 35">
  <g id="Group_14" data-name="Group 14" transform="translate(-5571.674 -2999)">
    <rect id="Rectangle_455" data-name="Rectangle 455" width="35" height="35" rx="11" transform="translate(5571.674 2999)" fill="#f3f3fc"/>
    <path id="key_2_" data-name="key (2)" d="M4.694,15A4.687,4.687,0,0,1,3.422,5.8a4.6,4.6,0,0,1,2.426-.03L10.79.831a2.812,2.812,0,0,1,2-.831h0A2.212,2.212,0,0,1,15,2.21a2.817,2.817,0,0,1-.83,2l-.42.42A1.259,1.259,0,0,1,12.87,5h-.991v.625a1.25,1.25,0,0,1-1.25,1.25H10v.991a1.241,1.241,0,0,1-.366.884l-.406.406A4.584,4.584,0,0,1,9.2,11.581a4.706,4.706,0,0,1-4.017,3.393,4.784,4.784,0,0,1-.49.026Zm0-8.125A3.437,3.437,0,1,0,8,11.244a3.375,3.375,0,0,0-.062-2.062.625.625,0,0,1,.149-.647l.667-.668V6.875A1.25,1.25,0,0,1,10,5.625h.625V5a1.25,1.25,0,0,1,1.25-1.25h.991l.42-.42a1.574,1.574,0,0,0,.464-1.12.961.961,0,0,0-.959-.96,1.575,1.575,0,0,0-1.121.464L6.467,6.921a.625.625,0,0,1-.647.148,3.414,3.414,0,0,0-1.128-.194ZM3.128,11.25a.625.625,0,1,0,.625-.625A.625.625,0,0,0,3.128,11.25Z" transform="translate(5581.665 3009)" fill="#43465e"/>
  </g>
</svg>
