<svg xmlns="http://www.w3.org/2000/svg" xmlns:xlink="http://www.w3.org/1999/xlink" width="40" height="40" viewBox="0 0 40 40">
  <defs>
    <clipPath id="clip-path">
      <rect id="Rectangle_176" data-name="Rectangle 176" width="18.391" height="18.379" fill="#43465e"/>
    </clipPath>
  </defs>
  <g id="Group_1091" data-name="Group 1091" transform="translate(-1003 -1475)">
    <g id="Rectangle_568" data-name="Rectangle 568" transform="translate(1003 1475)" fill="none" stroke="#43465e" stroke-width="0.4" opacity="0.44">
      <rect width="40" height="40" rx="11" stroke="none"/>
      <rect x="0.2" y="0.2" width="39.6" height="39.6" rx="10.8" fill="none"/>
    </g>
    <g id="Group_891" data-name="Group 891" transform="translate(1014 1486)">
      <g id="Group_71" data-name="Group 71" transform="translate(0 0)">
        <g id="Group_70" data-name="Group 70" clip-path="url(#clip-path)">
          <path id="Path_526" data-name="Path 526" d="M112.637,109.656h-3.8V97.4h3.629v1.65c.051-.029.075-.034.084-.048a3.96,3.96,0,0,1,3.477-1.9,5.268,5.268,0,0,1,2.448.443,3.527,3.527,0,0,1,1.877,2.336,8.921,8.921,0,0,1,.339,2.525c.016,2.363.01,4.727.012,7.091,0,.036-.005.072-.009.123h-3.806c0-.082,0-.168,0-.254,0-2,.005-4.009-.008-6.014a7.817,7.817,0,0,0-.121-1.359,1.764,1.764,0,0,0-2.217-1.543,1.949,1.949,0,0,0-1.817,1.9,9.288,9.288,0,0,0-.09,1.273c-.009,1.915,0,3.83,0,5.744v.29" transform="translate(-102.318 -91.277)" fill="#43465e"/>
          <rect id="Rectangle_175" data-name="Rectangle 175" width="3.791" height="12.247" transform="translate(0.316 6.124)" fill="#43465e"/>
          <path id="Path_527" data-name="Path 527" d="M4.411,2.2A2.224,2.224,0,0,1,2.223,4.436,2.218,2.218,0,0,1,2.193,0,2.208,2.208,0,0,1,4.411,2.2" transform="translate(0 0)" fill="#43465e"/>
        </g>
      </g>
    </g>
  </g>
</svg>
