<svg xmlns="http://www.w3.org/2000/svg" width="39.593" height="30.616" viewBox="0 0 39.593 30.616">
  <g id="Group_1108" data-name="Group 1108" transform="translate(-1968 -661.573)">
    <g id="Group_462" data-name="Group 462" transform="translate(1978.547 672.119)">
      <path id="Path_895" data-name="Path 895" d="M40.129,41.786H21.445A5.182,5.182,0,0,1,16.264,36.6V26.9a5.182,5.182,0,0,1,5.182-5.182H40.129A5.182,5.182,0,0,1,45.311,26.9V36.6A5.182,5.182,0,0,1,40.129,41.786Z" transform="translate(-16.264 -21.716)" fill="#fc4a32"/>
    </g>
    <g id="Group_463" data-name="Group 463" transform="translate(1978.55 672.119)">
      <path id="Path_896" data-name="Path 896" d="M40.13,21.716h-.221a2.217,2.217,0,0,0-2.217,2.217h0A12.731,12.731,0,0,1,24.96,36.664H16.267a5.18,5.18,0,0,0,5.179,5.122H40.13A5.182,5.182,0,0,0,45.311,36.6V26.9a5.182,5.182,0,0,0-5.182-5.182Z" transform="translate(-16.267 -21.716)" fill="#e23e2d"/>
    </g>
    <g id="Group_466" data-name="Group 466" transform="translate(1989.905 676.785)">
      <g id="Group_464" data-name="Group 464" transform="translate(0)">
        <path id="Path_897" data-name="Path 897" d="M32.032,38.561l5.716-4.5a1.218,1.218,0,0,0,0-1.915l-5.716-4.5a1.218,1.218,0,0,0-1.972.957v9a1.218,1.218,0,0,0,1.972.957Z" transform="translate(-30.06 -27.383)" fill="#f8ecdc"/>
      </g>
      <g id="Group_465" data-name="Group 465" transform="translate(0 2.299)">
        <path id="Path_898" data-name="Path 898" d="M37.749,32.64l-3.131-2.465v1.456a4.558,4.558,0,0,1-4.558,4.558h0V38.1a1.218,1.218,0,0,0,1.972.957l5.716-4.5A1.218,1.218,0,0,0,37.749,32.64Z" transform="translate(-30.06 -30.176)" fill="#f7ddcc"/>
      </g>
    </g>
    <path id="Path_899" data-name="Path 899" d="M4.265,25.445a.811.811,0,0,1-.811-.811A15.746,15.746,0,0,1,19.181,8.905a.811.811,0,0,1,0,1.622A14.122,14.122,0,0,0,5.076,24.633a.811.811,0,0,1-.811.811Z" transform="translate(1964.547 652.667)" fill="#4d5471"/>
    <path id="Path_900" data-name="Path 900" d="M8.207,26.141A.811.811,0,0,1,7.4,25.33,12.5,12.5,0,0,1,19.878,12.848a.811.811,0,0,1,0,1.622A10.872,10.872,0,0,0,9.018,25.33a.811.811,0,0,1-.811.811Z" transform="translate(1963.85 651.971)" fill="#4d5471"/>
    <path id="Path_901" data-name="Path 901" d="M12.148,26.838a.811.811,0,0,1-.811-.811,9.248,9.248,0,0,1,9.238-9.238.811.811,0,0,1,0,1.622,7.624,7.624,0,0,0-7.615,7.615.811.811,0,0,1-.811.811Z" transform="translate(1963.154 651.274)" fill="#4d5471"/>
    <path id="Path_902" data-name="Path 902" d="M36.336,25.174H25.064a1.163,1.163,0,0,1,0-2.327H36.336a1.163,1.163,0,1,1,0,2.327Z" transform="translate(1960.933 650.203)" fill="#ff6252"/>
  </g>
</svg>
