<svg xmlns="http://www.w3.org/2000/svg" xmlns:xlink="http://www.w3.org/1999/xlink" width="55" height="55" viewBox="0 0 55 55">
  <defs>
    <clipPath id="clip-path">
      <rect id="Rectangle_110" data-name="Rectangle 110" width="24.19" height="27.683" fill="#333548"/>
    </clipPath>
  </defs>
  <g id="Er" transform="translate(-47 -98)">
    <rect id="Rectangle_466" data-name="Rectangle 466" width="55" height="55" rx="15" transform="translate(47 98)" fill="#f5f6fa"/>
    <g id="Group_668" data-name="Group 668" transform="translate(62 112)">
      <g id="Group_4" data-name="Group 4" clip-path="url(#clip-path)">
        <path id="Path_3" data-name="Path 3" d="M12.636,0a15.672,15.672,0,0,1,1.672.4A6.332,6.332,0,0,1,18.57,6.425c.006,1.135,0,2.271,0,3.406v.334c.4,0,.778,0,1.161,0a4.569,4.569,0,0,1,1.664.283,4.3,4.3,0,0,1,2.776,3.843c.033,1.4.016,2.793.009,4.19a1.076,1.076,0,1,1-2.152-.02c-.008-1.3,0-2.6,0-3.893a2.133,2.133,0,0,0-1.592-2.149,2.556,2.556,0,0,0-.691-.088q-7.649-.007-15.3,0A2.166,2.166,0,0,0,2.168,14.6q-.006,4.325,0,8.65a2.162,2.162,0,0,0,2.258,2.264q7.662.006,15.324,0a2.168,2.168,0,0,0,2.275-2.168,1.073,1.073,0,0,1,.8-1.031,1.009,1.009,0,0,1,1.137.408,1.4,1.4,0,0,1,.209.679,4.322,4.322,0,0,1-3.62,4.22,1.617,1.617,0,0,0-.2.056H3.84a.333.333,0,0,0-.094-.045A4.367,4.367,0,0,1,0,23.194c.032-2.846,0-5.692.011-8.538A5.182,5.182,0,0,1,.1,13.637a4.3,4.3,0,0,1,4.178-3.47c.438-.008.876,0,1.339,0V9.848c0-1.144,0-2.288,0-3.431A6.324,6.324,0,0,1,9.86.406,15.782,15.782,0,0,1,11.556,0ZM16.4,10.154c0-1.4.013-2.765-.009-4.132a3.2,3.2,0,0,0-.2-.973,4.325,4.325,0,0,0-4.862-2.82A4.239,4.239,0,0,0,7.779,6.459q0,1.715,0,3.431c0,.087.008.173.012.264Z" transform="translate(0)" fill="#333548"/>
        <path id="Path_4" data-name="Path 4" d="M75.754,261.911a1.077,1.077,0,1,1-1.082-1.082,1.084,1.084,0,0,1,1.082,1.082" transform="translate(-68.625 -243.201)" fill="#333548"/>
        <path id="Path_5" data-name="Path 5" d="M135.636,261.914a1.077,1.077,0,1,1-1.079-1.085,1.084,1.084,0,0,1,1.079,1.085" transform="translate(-124.46 -243.201)" fill="#333548"/>
        <path id="Path_6" data-name="Path 6" d="M194.457,262.988a1.079,1.079,0,1,1,1.065-1.1,1.084,1.084,0,0,1-1.065,1.1" transform="translate(-180.298 -243.201)" fill="#333548"/>
        <path id="Path_7" data-name="Path 7" d="M255.126,262.987A1.079,1.079,0,1,1,256.2,261.9a1.084,1.084,0,0,1-1.077,1.086" transform="translate(-236.879 -243.2)" fill="#333548"/>
      </g>
    </g>
  </g>
</svg>
