<svg xmlns="http://www.w3.org/2000/svg" xmlns:xlink="http://www.w3.org/1999/xlink" width="35" height="35" viewBox="0 0 35 35">
  <defs>
    <clipPath id="clip-path">
      <rect id="Rectangle_323" data-name="Rectangle 323" width="17.064" height="18.955" fill="#e74c3c"/>
    </clipPath>
  </defs>
  <g id="Group_1081" data-name="Group 1081" transform="translate(-836 -1412.88)">
    <rect id="Rectangle_565" data-name="Rectangle 565" width="35" height="35" rx="11" transform="translate(836 1412.88)" fill="#ffe6e3"/>
    <g id="Group_892" data-name="Group 892" transform="translate(844.968 1420.88)">
      <g id="Group_167" data-name="Group 167" clip-path="url(#clip-path)">
        <path id="Path_688" data-name="Path 688" d="M8.52,63.107a6.657,6.657,0,0,0,6.586-5.879,6.463,6.463,0,0,0-3.18-6.5.988.988,0,0,1-.532-1.051.947.947,0,0,1,1.441-.613A8.418,8.418,0,0,1,15.42,51.4a8.528,8.528,0,1,1-11.2-2.329.932.932,0,0,1,1.028-.006.9.9,0,0,1,.438.865.967.967,0,0,1-.532.794,6.434,6.434,0,0,0-1.9,1.686,6.627,6.627,0,0,0,3.8,10.482c.48.113.978.144,1.468.213" transform="translate(0 -46.013)" fill="#e74c3c"/>
        <path id="Path_689" data-name="Path 689" d="M129.753,5.7c0,1.561,0,3.123,0,4.684a.943.943,0,0,1-1.881.126c-.006-.081-.005-.163-.005-.244q0-4.584,0-9.168A1.587,1.587,0,0,1,127.9.677a.93.93,0,0,1,1.041-.67.918.918,0,0,1,.8.916c.008,1.354,0,2.708,0,4.062q0,.355,0,.71" transform="translate(-120.277 0)" fill="#e74c3c"/>
      </g>
    </g>
  </g>
</svg>
