<svg xmlns="http://www.w3.org/2000/svg" width="31" height="31" viewBox="0 0 31 31">
  <g id="Group_1098" data-name="Group 1098" transform="translate(-36 -875)">
    <rect id="Rectangle_550" data-name="Rectangle 550" width="31" height="31" rx="9" transform="translate(36 875)" fill="#fff"/>
    <g id="mail" transform="translate(40.75 879.25)">
      <path id="Path_1001" data-name="Path 1001" d="M15.277,19.227H6.371c-3.251,0-5.121-1.87-5.121-5.121V7.871C1.25,4.62,3.12,2.75,6.371,2.75h8.906c3.251,0,5.121,1.87,5.121,5.121v6.234C20.4,17.356,18.528,19.227,15.277,19.227ZM6.371,4.086c-2.547,0-3.785,1.238-3.785,3.785v6.234c0,2.547,1.238,3.785,3.785,3.785h8.906c2.547,0,3.785-1.238,3.785-3.785V7.871c0-2.547-1.238-3.785-3.785-3.785Z" transform="translate(0)" fill="#27293d"/>
      <path id="Path_1002" data-name="Path 1002" d="M11.37,12.364a3.311,3.311,0,0,1-2.084-.7L6.5,9.434a.666.666,0,0,1,.828-1.042l2.788,2.227a2.125,2.125,0,0,0,2.5,0L15.4,8.392a.666.666,0,1,1,.828,1.042L13.445,11.66A3.268,3.268,0,0,1,11.37,12.364Z" transform="translate(-0.546 -0.601)" fill="#27293d"/>
    </g>
  </g>
</svg>
