<svg xmlns="http://www.w3.org/2000/svg" width="18.068" height="22.06" viewBox="0 0 18.068 22.06">
  <g id="Group_1112" data-name="Group 1112" transform="translate(-2086.966 -1265)">
    <path id="Path_19" data-name="Path 19" d="M9.035,201.6c-1.98,0-3.961,0-5.941,0A3.016,3.016,0,0,1,.129,199.41a4.45,4.45,0,0,1,.056-2.323,6.9,6.9,0,0,1,5.7-5.413,6.4,6.4,0,0,1,1.215-.1c1.291-.012,2.583-.01,3.875,0a7,7,0,0,1,6.914,5.516,4.705,4.705,0,0,1,.059,2.3,3.017,3.017,0,0,1-2.973,2.212c-1.98,0-3.961,0-5.941,0" transform="translate(2086.967 1085.455)" fill="#b0b2bb"/>
    <path id="Path_20" data-name="Path 20" d="M74.1,5.166A5.013,5.013,0,1,1,69.248.006,5.021,5.021,0,0,1,74.1,5.166" transform="translate(2026.917 1265)" fill="#b0b2bb"/>
  </g>
</svg>
