<svg xmlns="http://www.w3.org/2000/svg" width="39" height="39" viewBox="0 0 39 39">
  <g id="Group_1110" data-name="Group 1110" transform="translate(-1723 -657)">
    <path id="Path_853" data-name="Path 853" d="M37.727,144.45c-6.19-2.1-12.158-3.564-18.227.439-6.069-4-12.037-2.542-18.227-.439A1.879,1.879,0,0,0,0,146.229v22.506a1.782,1.782,0,0,0,2.338,1.694c4.452-1.464,8.853-3.112,13.212-1.9a5.1,5.1,0,0,1,2.287,1.359,2.6,2.6,0,0,0,3.306.063,5.527,5.527,0,0,1,2.467-1.466c4.307-1.132,8.654.5,13.052,1.942A1.782,1.782,0,0,0,39,168.735V146.229A1.879,1.879,0,0,0,37.727,144.45Z" transform="translate(1723 525.48)" fill="#57575d"/>
    <g id="Group_424" data-name="Group 424" transform="translate(1725.333 664.31)">
      <path id="Path_854" data-name="Path 854" d="M63.846,149.366c-5.449-1.851-10.7-3.137-16.046.386-5.343-3.523-10.6-2.238-16.046-.386a1.654,1.654,0,0,0-1.12,1.566v19.119a1.57,1.57,0,0,0,2.062,1.49c4.829-1.588,9.59-2.592,14.3.188a1.586,1.586,0,0,0,1.616,0c4.707-2.78,9.468-1.776,14.3-.188a1.57,1.57,0,0,0,2.062-1.49V150.932A1.654,1.654,0,0,0,63.846,149.366Z" transform="translate(-30.633 -143.603)" fill="#cfdbe4"/>
      <path id="Path_855" data-name="Path 855" d="M273.167,120.689c-5.815-2.026-11.529-3.866-17.167,0V98.2c5.343-3.523,10.6-2.238,16.046-.386a1.654,1.654,0,0,1,1.12,1.566Z" transform="translate(-238.833 -95.975)" fill="#f7f9fa"/>
      <g id="Group_419" data-name="Group 419" transform="translate(22.973)">
        <path id="Path_856" data-name="Path 856" d="M342.461,97.811c-3.468-1.178-6.857-2.127-10.24-1.753a32.471,32.471,0,0,1,7.1,1.753,1.654,1.654,0,0,1,1.12,1.566v20.265c1.043.321,2.089.681,3.139,1.047V99.377A1.654,1.654,0,0,0,342.461,97.811Z" transform="translate(-332.221 -95.975)" fill="#ecf1f5"/>
      </g>
      <path id="Path_857" data-name="Path 857" d="M30.633,120.689c5.815-2.026,11.529-3.866,17.167,0V98.2c-5.343-3.523-10.6-2.238-16.046-.386a1.654,1.654,0,0,0-1.12,1.566Z" transform="translate(-30.633 -95.975)" fill="#f7f9fa"/>
      <g id="Group_420" data-name="Group 420" transform="translate(8.222 0)">
        <path id="Path_858" data-name="Path 858" d="M138.571,96.058a12.949,12.949,0,0,1,5.806,2.14v20.9a12.968,12.968,0,0,1,3.139,1.6V98.2a13.16,13.16,0,0,0-8.945-2.14Z" transform="translate(-138.571 -95.975)" fill="#ecf1f5"/>
      </g>
      <g id="Group_423" data-name="Group 423" transform="translate(2.55 2.55)">
        <g id="Group_421" data-name="Group 421">
          <path id="Path_859" data-name="Path 859" d="M64.7,131.968a.589.589,0,0,1-.181-1.148,22.217,22.217,0,0,1,6.873-1.362,10.26,10.26,0,0,1,4.447.964.589.589,0,1,1-.5,1.066,9.109,9.109,0,0,0-3.948-.853,21.169,21.169,0,0,0-6.51,1.3A.589.589,0,0,1,64.7,131.968Z" transform="translate(-64.112 -129.457)" fill="#685e68"/>
          <path id="Path_860" data-name="Path 860" d="M64.7,169.334a.589.589,0,0,1-.181-1.148,22.217,22.217,0,0,1,6.873-1.362,10.261,10.261,0,0,1,4.447.964.589.589,0,1,1-.5,1.066A9.109,9.109,0,0,0,71.393,168a21.17,21.17,0,0,0-6.51,1.3.589.589,0,0,1-.182.029Z" transform="translate(-64.112 -163.977)" fill="#685e68"/>
          <path id="Path_861" data-name="Path 861" d="M64.7,206.7a.589.589,0,0,1-.181-1.148,22.217,22.217,0,0,1,6.873-1.362,10.261,10.261,0,0,1,4.447.964.589.589,0,1,1-.5,1.066,9.108,9.108,0,0,0-3.948-.853,21.169,21.169,0,0,0-6.51,1.3A.589.589,0,0,1,64.7,206.7Z" transform="translate(-64.112 -198.497)" fill="#685e68"/>
        </g>
        <g id="Group_422" data-name="Group 422" transform="translate(17.167 10.191)">
          <path id="Path_862" data-name="Path 862" d="M300.956,265.755a.588.588,0,0,1-.182-.029,21.169,21.169,0,0,0-6.51-1.3,9.109,9.109,0,0,0-3.948.853.589.589,0,1,1-.5-1.066,10.261,10.261,0,0,1,4.447-.964,22.217,22.217,0,0,1,6.873,1.362.589.589,0,0,1-.181,1.149Z" transform="translate(-289.478 -263.244)" fill="#685e68"/>
          <path id="Path_863" data-name="Path 863" d="M300.956,303.121a.588.588,0,0,1-.182-.029,21.168,21.168,0,0,0-6.51-1.3,9.109,9.109,0,0,0-3.948.853.589.589,0,1,1-.5-1.066,10.261,10.261,0,0,1,4.447-.964,22.217,22.217,0,0,1,6.873,1.362.589.589,0,0,1-.181,1.149Z" transform="translate(-289.478 -297.764)" fill="#685e68"/>
          <path id="Path_864" data-name="Path 864" d="M300.956,340.488a.588.588,0,0,1-.182-.029,21.169,21.169,0,0,0-6.51-1.3,9.109,9.109,0,0,0-3.948.853.589.589,0,1,1-.5-1.066,10.261,10.261,0,0,1,4.447-.964,22.216,22.216,0,0,1,6.873,1.362.589.589,0,0,1-.181,1.148Z" transform="translate(-289.478 -332.284)" fill="#685e68"/>
        </g>
      </g>
    </g>
    <path id="Path_865" data-name="Path 865" d="M226.312.17l.667,1.219a.326.326,0,0,0,.13.13l1.219.667a.327.327,0,0,1,0,.573l-1.219.667a.326.326,0,0,0-.13.13l-.667,1.219a.327.327,0,0,1-.573,0l-.667-1.219a.326.326,0,0,0-.13-.13l-1.219-.667a.327.327,0,0,1,0-.573l1.219-.667a.326.326,0,0,0,.13-.13L225.739.17a.327.327,0,0,1,.573,0Z" transform="translate(1516.474 657)" fill="#ffd15b"/>
    <g id="Group_426" data-name="Group 426" transform="translate(1731.445 669.046)">
      <path id="Path_866" data-name="Path 866" d="M339,158.321l.667,1.219a.326.326,0,0,0,.13.13l1.219.667a.327.327,0,0,1,0,.573l-1.219.667a.327.327,0,0,0-.13.13L339,162.924a.327.327,0,0,1-.573,0l-.667-1.219a.326.326,0,0,0-.13-.13l-1.219-.667a.327.327,0,0,1,0-.573l1.219-.667a.326.326,0,0,0,.13-.13l.667-1.219A.327.327,0,0,1,339,158.321Z" transform="translate(-319.072 -158.151)" fill="#ffd15b"/>
      <path id="Path_867" data-name="Path 867" d="M113.628,275.6l.667,1.219a.326.326,0,0,0,.13.13l1.219.667a.327.327,0,0,1,0,.573l-1.219.667a.326.326,0,0,0-.13.13l-.667,1.219a.327.327,0,0,1-.573,0l-.667-1.219a.326.326,0,0,0-.13-.13l-1.219-.667a.327.327,0,0,1,0-.573l1.219-.667a.326.326,0,0,0,.13-.13l.667-1.219A.326.326,0,0,1,113.628,275.6Z" transform="translate(-110.87 -266.498)" fill="#ffd15b"/>
    </g>
  </g>
</svg>
