<svg xmlns="http://www.w3.org/2000/svg" width="35" height="35" viewBox="0 0 35 35">
  <g id="Group_33" data-name="Group 33" transform="translate(-5571.674 -3051)">
    <rect id="Rectangle_456" data-name="Rectangle 456" width="35" height="35" rx="11" transform="translate(5571.674 3051)" fill="#f3f3fc"/>
    <path id="bell" d="M14.465,8.539,13.278,4.267a5.825,5.825,0,0,0-11.3.3L1.06,8.7a3.125,3.125,0,0,0,3.05,3.8h.7a3.125,3.125,0,0,0,6.124,0h.524a3.125,3.125,0,0,0,3.011-3.961Zm-6.6,5.211a1.875,1.875,0,0,1-1.76-1.25h3.52a1.875,1.875,0,0,1-1.76,1.25Zm5.078-3.24a1.86,1.86,0,0,1-1.493.741H4.111a1.875,1.875,0,0,1-1.83-2.282L3.2,4.833A4.575,4.575,0,0,1,12.073,4.6l1.187,4.272a1.86,1.86,0,0,1-.314,1.636Z" transform="translate(5581.688 3060.998)" fill="#43465e"/>
  </g>
</svg>
