<svg xmlns="http://www.w3.org/2000/svg" width="31" height="31" viewBox="0 0 31 31">
  <g id="Group_1099" data-name="Group 1099" transform="translate(-36 -764)">
    <rect id="Rectangle_549" data-name="Rectangle 549" width="31" height="31" rx="9" transform="translate(36 764)" fill="#fff"/>
    <path id="phone" d="M4.485,3.517a.967.967,0,0,0-.967.967A12.975,12.975,0,0,0,16.492,17.459a.967.967,0,0,0,.967-.967V14.167a1.056,1.056,0,0,0-.664-.981h0L14.568,12.3a1.056,1.056,0,0,0-1.068.169h0l-.575.479h0a2.324,2.324,0,0,1-3.13-.142l-1.62-1.62h0a2.324,2.324,0,0,1-.142-3.131h0l.479-.575h0a1.056,1.056,0,0,0,.169-1.068l.556-.222-.556.222L7.79,4.181a1.056,1.056,0,0,0-.981-.664ZM2.25,4.485A2.235,2.235,0,0,1,4.485,2.25H6.809A2.324,2.324,0,0,1,8.967,3.711l-.588.235.588-.235.891,2.227a2.324,2.324,0,0,1-.372,2.35h0l-.479.575a1.056,1.056,0,0,0,.064,1.423l1.62,1.62a1.056,1.056,0,0,0,1.423.065h0l.575-.479a2.323,2.323,0,0,1,2.35-.372l2.227.891a2.324,2.324,0,0,1,1.461,2.157v2.325a2.234,2.234,0,0,1-2.234,2.235A14.242,14.242,0,0,1,2.25,4.485Z" transform="translate(41.012 769.012)" fill="#27293d" fill-rule="evenodd"/>
  </g>
</svg>
