<svg xmlns="http://www.w3.org/2000/svg" width="34.417" height="33.579" viewBox="0 0 34.417 33.579">
  <g id="Group_1105" data-name="Group 1105" transform="translate(-1725 -522)">
    <path id="Path_752" data-name="Path 752" d="M42.225,22.364V35.018a2.661,2.661,0,0,1-2.659,2.667h-1.33v3.244a.435.435,0,0,1-.694.351L32.7,37.684H23.917a2.661,2.661,0,0,1-2.659-2.667V22.364A2.666,2.666,0,0,1,23.917,19.7H39.566a2.666,2.666,0,0,1,2.659,2.666Z" transform="translate(1717.192 514.214)" fill="#a2a2f9"/>
    <path id="Path_753" data-name="Path 753" d="M32.574,19.7v6.4a3.041,3.041,0,0,1-3.039,3.039H21.258V28.085h7.021a3.041,3.041,0,0,0,3.039-3.039V19.7Z" transform="translate(1717.192 514.214)" fill="#7979f7"/>
    <path id="Path_754" data-name="Path 754" d="M46.289,19.922a2.616,2.616,0,0,1,.409,1.41V33.993a2.659,2.659,0,0,1-2.659,2.659h-.6a.719.719,0,0,0-.719.719V39.9a.437.437,0,0,1-.623.379c-.062-.022-.253-.067-.253-.067l1.526,1.134a.435.435,0,0,0,.694-.351V37.748h1.33a2.661,2.661,0,0,0,2.659-2.667V22.428a2.654,2.654,0,0,0-1.761-2.506Z" transform="translate(1711.367 514.15)" fill="#7979f7"/>
    <g id="Group_302" data-name="Group 302" transform="translate(1744.31 550.285)" opacity="0.6">
      <g id="Group_301" data-name="Group 301">
        <path id="Path_755" data-name="Path 755" d="M32.62,43.014a.48.48,0,0,0-.48-.48H29.912a.48.48,0,1,0,0,.96H32.14A.48.48,0,0,0,32.62,43.014Z" transform="translate(-29.431 -42.534)" fill="#fff"/>
      </g>
    </g>
    <g id="Group_304" data-name="Group 304" transform="translate(1742.286 550.285)" opacity="0.6">
      <g id="Group_303" data-name="Group 303">
        <path id="Path_756" data-name="Path 756" d="M27.7,43.014a.48.48,0,0,0-.48-.48h-.134a.48.48,0,1,0,0,.96h.134A.48.48,0,0,0,27.7,43.014Z" transform="translate(-26.608 -42.534)" fill="#fff"/>
      </g>
    </g>
    <path id="Path_757" data-name="Path 757" d="M40.677,24.889v9.629a1.615,1.615,0,0,1-1.615,1.615H26.438a1.615,1.615,0,0,1-1.615-1.615V24.889a1.615,1.615,0,0,1,1.615-1.615H39.063a1.615,1.615,0,0,1,1.615,1.615Z" transform="translate(1716.183 513.202)" fill="#fff"/>
    <path id="Path_758" data-name="Path 758" d="M33.583,23.274V27.11a3.041,3.041,0,0,1-3.039,3.039h-5.72V29.1h4.464a3.041,3.041,0,0,0,3.039-3.039V23.274Z" transform="translate(1716.183 513.202)" fill="#e4e3ff"/>
    <path id="Path_759" data-name="Path 759" d="M40.692,24.912V34.54a1.615,1.615,0,0,1-1.615,1.615H26.453a1.608,1.608,0,0,1-1.578-1.293,1.706,1.706,0,0,0,.431.058H37.93a1.615,1.615,0,0,0,1.615-1.615V23.677a1.549,1.549,0,0,0-.037-.321,1.617,1.617,0,0,1,1.184,1.556Z" transform="translate(1716.168 513.179)" fill="#e4e3ff"/>
    <g id="Group_309" data-name="Group 309" transform="translate(1725 522)">
      <path id="Path_760" data-name="Path 760" d="M26.433,6.124V20.566a3.04,3.04,0,0,1-3.04,3.04H13.378l-5.534,4.1a.5.5,0,0,1-.793-.4v-3.7H5.54a3.04,3.04,0,0,1-3.04-3.04V6.124a3.04,3.04,0,0,1,3.04-3.04H23.393a3.04,3.04,0,0,1,3.04,3.04Z" transform="translate(-2.5 -3.084)" fill="#f9b938"/>
    </g>
    <g id="Group_311" data-name="Group 311" transform="translate(1734.205 522.913)" opacity="0.3">
      <g id="Group_310" data-name="Group 310">
        <path id="Path_761" data-name="Path 761" d="M16.412,5.454h-.526a.548.548,0,1,1,0-1.1h.526a.548.548,0,1,1,0,1.1Z" transform="translate(-15.338 -4.358)" fill="#fff"/>
      </g>
    </g>
    <g id="Group_313" data-name="Group 313" transform="translate(1737.047 522.913)" opacity="0.3">
      <g id="Group_312" data-name="Group 312">
        <path id="Path_762" data-name="Path 762" d="M24.386,5.454H19.849a.548.548,0,0,1,0-1.1h4.536a.548.548,0,0,1,0,1.1Z" transform="translate(-19.302 -4.358)" fill="#fff"/>
      </g>
    </g>
    <g id="Group_315" data-name="Group 315" transform="translate(1725.952 531.466)" opacity="0.3">
      <g id="Group_314" data-name="Group 314">
        <path id="Path_763" data-name="Path 763" d="M4.375,22.426a.548.548,0,0,1-.548-.548V16.834a.548.548,0,1,1,1.1,0v5.044A.548.548,0,0,1,4.375,22.426Z" transform="translate(-3.827 -16.286)" fill="#fff"/>
      </g>
    </g>
    <g id="Group_317" data-name="Group 317" transform="translate(1725.952 528.738)" opacity="0.3">
      <g id="Group_316" data-name="Group 316">
        <path id="Path_764" data-name="Path 764" d="M4.375,14.148a.548.548,0,0,1-.548-.548v-.57a.548.548,0,0,1,1.1,0v.57A.548.548,0,0,1,4.375,14.148Z" transform="translate(-3.827 -12.483)" fill="#fff"/>
      </g>
    </g>
    <g id="Group_318" data-name="Group 318" transform="translate(1729.552 522.27)">
      <path id="Path_765" data-name="Path 765" d="M28.23,6.23V20.674a3.039,3.039,0,0,1-3.039,3.039H15.174l-5.53,4.106a.5.5,0,0,1-.8-.4v-.994l4.819-3.576a.945.945,0,0,1,.563-.186h9.7a3.039,3.039,0,0,0,3.039-3.039V5.178a3.025,3.025,0,0,0-.533-1.717A3.027,3.027,0,0,1,28.23,6.23Z" transform="translate(-8.848 -3.462)" fill="#ecb021"/>
    </g>
    <g id="Group_319" data-name="Group 319" transform="translate(1727.922 524.922)">
      <path id="Path_766" data-name="Path 766" d="M6.575,19.994V9A1.843,1.843,0,0,1,8.419,7.16h14.4A1.843,1.843,0,0,1,24.665,9v10.99a1.843,1.843,0,0,1-1.843,1.843H8.419a1.843,1.843,0,0,1-1.843-1.843Z" transform="translate(-6.575 -7.16)" fill="#fff"/>
    </g>
    <g id="Group_320" data-name="Group 320" transform="translate(1728.003 524.947)">
      <path id="Path_767" data-name="Path 767" d="M24.7,9.015V20a1.838,1.838,0,0,1-1.841,1.841H8.448a1.842,1.842,0,0,1-1.761-1.286,1.765,1.765,0,0,0,.343.029h14.4a1.844,1.844,0,0,0,1.841-1.848V7.751a2,2,0,0,0-.08-.555,1.851,1.851,0,0,1,1.5,1.819Z" transform="translate(-6.688 -7.196)" fill="#e4e3ff"/>
    </g>
    <g id="Group_321" data-name="Group 321" transform="translate(1732.566 527.579)">
      <path id="Path_768" data-name="Path 768" d="M19.844,16.827a3.2,3.2,0,0,1-1.526,1.292l.892.983a.4.4,0,0,1,.121.294.385.385,0,0,1-.121.3.432.432,0,0,1-.314.132.4.4,0,0,1-.324-.162l-1.105-1.317a3.993,3.993,0,0,1-.608.04,3.637,3.637,0,0,1-1.865-.466,3.192,3.192,0,0,1-1.236-1.287,4.123,4.123,0,0,1,0-3.77,3.192,3.192,0,0,1,1.236-1.287,3.954,3.954,0,0,1,3.725,0,3.228,3.228,0,0,1,1.236,1.292,4.1,4.1,0,0,1,.461,1.88,3.969,3.969,0,0,1-.572,2.073Zm-1.576.34a2.4,2.4,0,0,0,.912-.993,3.361,3.361,0,0,0,0-2.838,2.4,2.4,0,0,0-.912-.993,2.914,2.914,0,0,0-2.822,0,2.408,2.408,0,0,0-.907.993,3.361,3.361,0,0,0,0,2.838,2.408,2.408,0,0,0,.907.993,2.914,2.914,0,0,0,2.822,0Z" transform="translate(-13.123 -10.937)" fill="#474646"/>
      <path id="Path_769" data-name="Path 769" d="M18.825,19.941a.585.585,0,0,1-.464-.229l-1.039-1.239a4.552,4.552,0,0,1-.534.028,3.829,3.829,0,0,1-1.955-.49,3.382,3.382,0,0,1-1.3-1.358,4.3,4.3,0,0,1,0-3.938,3.389,3.389,0,0,1,1.3-1.358,4.132,4.132,0,0,1,3.905,0,3.424,3.424,0,0,1,1.3,1.363,4.3,4.3,0,0,1,.482,1.961,4.167,4.167,0,0,1-.6,2.171,3.372,3.372,0,0,1-1.38,1.259l.728.8a.58.58,0,0,1,.167.414.554.554,0,0,1-.173.431.618.618,0,0,1-.442.185ZM17.468,18.09l1.17,1.394a.238.238,0,0,0,.375.019.208.208,0,0,0,.068-.167.231.231,0,0,0-.069-.177l-1.07-1.177.235-.1a3.041,3.041,0,0,0,1.442-1.222,3.806,3.806,0,0,0,.545-1.981,3.935,3.935,0,0,0-.44-1.792,3.066,3.066,0,0,0-1.169-1.222,3.774,3.774,0,0,0-3.543,0,3.032,3.032,0,0,0-1.169,1.217,3.946,3.946,0,0,0,0,3.6A3.033,3.033,0,0,0,15.014,17.7a3.477,3.477,0,0,0,1.774.441,3.872,3.872,0,0,0,.58-.038Zm-.68-.45a2.83,2.83,0,0,1-1.508-.391,2.593,2.593,0,0,1-.974-1.065,3.538,3.538,0,0,1,0-3,2.6,2.6,0,0,1,.974-1.066,3.092,3.092,0,0,1,3.01,0,2.588,2.588,0,0,1,.979,1.066,3.538,3.538,0,0,1,0,3,2.587,2.587,0,0,1-.978,1.066h0a2.835,2.835,0,0,1-1.5.391Zm0-5.553a2.481,2.481,0,0,0-1.32.338,2.24,2.24,0,0,0-.841.921,3.181,3.181,0,0,0,0,2.678,2.241,2.241,0,0,0,.841.92,2.738,2.738,0,0,0,2.636,0,2.234,2.234,0,0,0,.844-.92,3.181,3.181,0,0,0,0-2.678,2.23,2.23,0,0,0-.845-.92,2.483,2.483,0,0,0-1.315-.338Z" transform="translate(-13.052 -10.867)" fill="#474646"/>
    </g>
    <path id="Path_770" data-name="Path 770" d="M40.26,34.006a.392.392,0,0,1-.11.281.379.379,0,0,1-.285.113.4.4,0,0,1-.224-.066.416.416,0,0,1-.153-.18l-.57-1.368h-2.98l-.57,1.368a.416.416,0,0,1-.153.18.4.4,0,0,1-.224.066.377.377,0,0,1-.285-.113.392.392,0,0,1-.11-.281.477.477,0,0,1,.044-.175l2.235-5.278a.675.675,0,0,1,.2-.258.486.486,0,0,1,.311-.1h.088a.486.486,0,0,1,.311.1.675.675,0,0,1,.2.258l2.235,5.278a.477.477,0,0,1,.044.175Zm-2.832-4.8L36.244,32.06h2.366Z" transform="translate(1713.417 511.809)" fill="#474646"/>
    <path id="Path_771" data-name="Path 771" d="M39.794,34.509a.575.575,0,0,1-.323-.1.593.593,0,0,1-.218-.255L38.727,32.9H35.987l-.524,1.258a.592.592,0,0,1-.956.187.566.566,0,0,1-.16-.405.633.633,0,0,1,.058-.244l2.235-5.279a.864.864,0,0,1,.251-.329.663.663,0,0,1,.422-.139H37.4a.665.665,0,0,1,.422.139.864.864,0,0,1,.25.326L40.31,33.69a.649.649,0,0,1,.059.245.562.562,0,0,1-.574.574Zm-4.047-1.972h3.22l.615,1.478a.232.232,0,0,0,.085.1.218.218,0,0,0,.127.037.2.2,0,0,0,.156-.059.212.212,0,0,0,.06-.156.306.306,0,0,0-.031-.105l-2.235-5.278a.486.486,0,0,0-.144-.188.31.31,0,0,0-.2-.062h-.088a.308.308,0,0,0-.2.062.486.486,0,0,0-.145.191L34.735,33.83a.294.294,0,0,0-.03.1.215.215,0,0,0,.06.158.2.2,0,0,0,.155.058.218.218,0,0,0,.125-.036.236.236,0,0,0,.089-.1Zm3.061-.368H35.9l1.453-3.5Zm-2.366-.359h1.83l-.914-2.2Z" transform="translate(1713.488 511.88)" fill="#474646"/>
  </g>
</svg>
