<svg xmlns="http://www.w3.org/2000/svg" xmlns:xlink="http://www.w3.org/1999/xlink" width="18" height="18" viewBox="0 0 18 18">
  <defs>
    <clipPath id="clip-path">
      <rect id="Rectangle_299" data-name="Rectangle 299" width="18" height="18" transform="translate(0.251 0.251)" fill="#234f77"/>
    </clipPath>
  </defs>
  <g id="Group_150" data-name="Group 150" transform="translate(0.111 0.113)">
    <g id="Group_149" data-name="Group 149" transform="translate(-0.362 -0.364)" clip-path="url(#clip-path)">
      <path id="Path_682" data-name="Path 682" d="M14.242,12.836,16.114,14.7c.484.483.97.962,1.448,1.451a.995.995,0,1,1-1.41,1.4q-1.568-1.561-3.129-3.129a1.925,1.925,0,0,1-.159-.21,7.9,7.9,0,0,1-6.726,1.471,7.7,7.7,0,0,1-4.667-3.133,7.951,7.951,0,1,1,12.77.285M13.92,7.967a5.963,5.963,0,1,0-5.971,5.95,5.97,5.97,0,0,0,5.971-5.95" transform="translate(0.305 0.306)" fill="#234f77"/>
    </g>
  </g>
</svg>
