<svg xmlns="http://www.w3.org/2000/svg" width="35" height="35" viewBox="0 0 35 35">
  <g id="Group_1082" data-name="Group 1082" transform="translate(-836 -1354)">
    <rect id="Rectangle_564" data-name="Rectangle 564" width="35" height="35" rx="11" transform="translate(836 1354)" fill="#f3f3fc"/>
    <g id="_01_align_center" data-name="01 align center" transform="translate(844.026 1363.001)">
      <path id="Path_1005" data-name="Path 1005" d="M14.476,10.987A3.491,3.491,0,0,0,11.6,12.5L6.724,10.3a3.427,3.427,0,0,0,0-2.613L11.6,5.476a3.491,3.491,0,1,0-.62-1.98,3.471,3.471,0,0,0,.06.589L5.861,6.437a3.5,3.5,0,1,0-.011,5.114l5.19,2.343a3.548,3.548,0,0,0-.059.588,3.5,3.5,0,1,0,3.5-3.5Zm0-9.489a2,2,0,1,1-2,2,2,2,0,0,1,2-2ZM3.49,10.987a2,2,0,1,1,2-2,2,2,0,0,1-2,2Zm10.987,5.493a2,2,0,1,1,2-2,2,2,0,0,1-2,2Z" transform="translate(0)" fill="#43465e"/>
    </g>
  </g>
</svg>
