<svg xmlns="http://www.w3.org/2000/svg" xmlns:xlink="http://www.w3.org/1999/xlink" width="66" height="66" viewBox="0 0 66 66">
  <defs>
    <filter id="Ellipse_84" x="0" y="0" width="66" height="66" filterUnits="userSpaceOnUse">
      <feOffset dy="3" input="SourceAlpha"/>
      <feGaussianBlur stdDeviation="3" result="blur"/>
      <feFlood flood-opacity="0.161"/>
      <feComposite operator="in" in2="blur"/>
      <feComposite in="SourceGraphic"/>
    </filter>
  </defs>
  <g id="Group_1116" data-name="Group 1116" transform="translate(-358 -84)">
    <g transform="matrix(1, 0, 0, 1, 358, 84)" filter="url(#Ellipse_84)">
      <circle id="Ellipse_84-2" data-name="Ellipse 84" cx="24" cy="24" r="24" transform="translate(9 6)" fill="#fff"/>
    </g>
    <g id="share_1_" data-name="share (1)" transform="translate(376.874 102)">
      <path id="Path_977" data-name="Path 977" d="M23.156,8.312A3.656,3.656,0,1,0,19.5,4.656,3.656,3.656,0,0,0,23.156,8.312Zm0-5.85a2.194,2.194,0,1,1-2.194,2.194A2.194,2.194,0,0,1,23.156,2.462Z" transform="translate(-4.67)" fill="#e74c3c"/>
      <path id="Path_978" data-name="Path 978" d="M21.543,20.462a3.634,3.634,0,0,0-2.834,1.375l-4.072-2.715a.731.731,0,0,0-.812,1.217l4.208,2.806a3.648,3.648,0,1,0,3.51-2.684Zm0,5.85a2.194,2.194,0,1,1,2.194-2.194A2.194,2.194,0,0,1,21.543,26.312Z" transform="translate(-3.057 -4.838)" fill="#e74c3c"/>
      <path id="Path_979" data-name="Path 979" d="M13.774,10.34a.731.731,0,1,0-.812-1.217L8.89,11.838a3.794,3.794,0,1,0,.676,1.308ZM6.056,16.312a2.194,2.194,0,1,1,2.194-2.194A2.194,2.194,0,0,1,6.056,16.312Z" transform="translate(0 -2.15)" fill="#e74c3c"/>
    </g>
  </g>
</svg>
