<svg xmlns="http://www.w3.org/2000/svg" width="23.526" height="22.06" viewBox="0 0 23.526 22.06">
  <g id="Group_1115" data-name="Group 1115" transform="translate(-2336 -1265)">
    <path id="Path_26" data-name="Path 26" d="M11.808,115.225c-2.479-.158-4.939-.316-7.4-.471a4.83,4.83,0,0,1-1.871-.383,3.739,3.739,0,0,1-2.144-3.024,40.2,40.2,0,0,1-.3-8.368c.022-.33.051-.66.091-.988.052-.427.238-.517.61-.3,1.467.864,2.931,1.734,4.4,2.6,1.079.634,2.127,1.335,3.252,1.876a7.155,7.155,0,0,0,7.173-.375c2.347-1.422,4.671-2.884,7-4.329.458-.284.642-.188.7.343a37.419,37.419,0,0,1,.1,6.666c-.08,1.078-.2,2.157-.366,3.224a3.638,3.638,0,0,1-3.46,3.019c-2.6.2-5.2.344-7.791.512" transform="translate(2336 1171.835)" fill="#b0b2bb"/>
    <path id="Path_27" data-name="Path 27" d="M19.089,0a7.856,7.856,0,0,1,4.07,1.008q2.4,1.344,4.806,2.672c.183.1.376.187.568.272A3.709,3.709,0,0,1,30.3,5.523c.171.3.142.408-.152.591-2.649,1.641-5.284,3.3-7.953,4.912a5.2,5.2,0,0,1-5.572.076c-2.711-1.554-5.388-3.17-8.081-4.756a.355.355,0,0,1-.158-.528,3.723,3.723,0,0,1,1.7-1.761q1.251-.653,2.492-1.323c1.295-.7,2.572-1.433,3.883-2.1A6.121,6.121,0,0,1,19.089,0" transform="translate(2328.344 1265)" fill="#b0b2bb"/>
  </g>
</svg>
