<svg id="Group_2" data-name="Group 2" xmlns="http://www.w3.org/2000/svg" xmlns:xlink="http://www.w3.org/1999/xlink" width="23.425" height="27.683" viewBox="0 0 23.425 27.683">
  <defs>
    <clipPath id="clip-path">
      <rect id="Rectangle_4" data-name="Rectangle 4" width="23.425" height="27.683" fill="#333548"/>
    </clipPath>
  </defs>
  <g id="Group_1" data-name="Group 1" clip-path="url(#clip-path)">
    <path id="Path_1" data-name="Path 1" d="M11.593,168.19a22.214,22.214,0,0,1-7.768-1.338A7.515,7.515,0,0,1,.878,164.98a3.179,3.179,0,0,1-.877-2.3,11.583,11.583,0,0,1,3.373-8.041,1.066,1.066,0,0,1,1.542-.092,1.053,1.053,0,0,1-.013,1.567,9.5,9.5,0,0,0-2.671,5.348c-.054.361-.056.729-.1,1.092a1.35,1.35,0,0,0,.531,1.225,6.572,6.572,0,0,0,2.2,1.209,19.262,19.262,0,0,0,6.13,1.054,20.122,20.122,0,0,0,7.557-1.06,11.8,11.8,0,0,0,1.891-.951,1.716,1.716,0,0,0,.847-1.8,9.678,9.678,0,0,0-2.768-6.1,1.131,1.131,0,0,1-.389-.947,1.062,1.062,0,0,1,1.824-.63,11.548,11.548,0,0,1,2.806,4.423,12.359,12.359,0,0,1,.661,3.58,3.346,3.346,0,0,1-1.158,2.715,8.973,8.973,0,0,1-3.385,1.849,23.561,23.561,0,0,1-7.284,1.073" transform="translate(0 -140.507)" fill="#333548"/>
    <path id="Path_2" data-name="Path 2" d="M55.393,0a7.451,7.451,0,1,1-7.466,7.393A7.45,7.45,0,0,1,55.393,0M55.37,12.772a5.321,5.321,0,1,0-5.315-5.344,5.324,5.324,0,0,0,5.315,5.344" transform="translate(-43.667 -0.001)" fill="#333548"/>
  </g>
</svg>
