<svg xmlns="http://www.w3.org/2000/svg" width="19.148" height="22.06" viewBox="0 0 19.148 22.06">
  <g id="Group_1114" data-name="Group 1114" transform="translate(-2254.426 -1265)">
    <path id="Path_24" data-name="Path 24" d="M9.569,22.059c-1.892,0-3.783,0-5.675,0A3.77,3.77,0,0,1,.035,18.776a7.517,7.517,0,0,1,.084-1.91C.335,15,.577,13.147.812,11.288c.173-1.366.31-2.738.535-4.1A3.763,3.763,0,0,1,4.471,4.163c.191-.03.228-.1.23-.273A3.805,3.805,0,0,1,8.009.046,8.276,8.276,0,0,1,9.328.008,13.45,13.45,0,0,1,11.2.064,3.777,3.777,0,0,1,14.43,3.773c0,.253.046.357.331.413a3.872,3.872,0,0,1,3.133,3.573c.211,1.878.466,3.751.7,5.626.187,1.51.421,3.016.543,4.531a3.783,3.783,0,0,1-3.315,4.112,4.35,4.35,0,0,1-.648.03q-2.8,0-5.6,0M9.556,9.434c-.066-.072-.109-.12-.153-.166A3.145,3.145,0,0,0,5.917,8.5a3.708,3.708,0,0,0-2.054,4.162A6.005,6.005,0,0,0,4.79,14.6,7.5,7.5,0,0,0,7.8,17.491a3.629,3.629,0,0,0,2.132.437A5.432,5.432,0,0,0,12.9,16.394,9.444,9.444,0,0,0,14.978,13.5,3.618,3.618,0,0,0,14.432,9.4a3.073,3.073,0,0,0-3.575-.955,3.291,3.291,0,0,0-1.3.994M6.26,4.093h6.612A2.269,2.269,0,0,0,10.807,1.56c-.823-.036-1.65-.035-2.474,0A2.272,2.272,0,0,0,6.26,4.093" transform="translate(2254.426 1265)" fill="#b0b2bb"/>
    <path id="Path_25" data-name="Path 25" d="M83.007,154a2.365,2.365,0,0,1,.552-1.529,1.544,1.544,0,0,1,1.87-.407,2.046,2.046,0,0,1,1.05,1.108.8.8,0,0,0,.76.559.783.783,0,0,0,.769-.575,2.345,2.345,0,0,1,.82-1.013,1.493,1.493,0,0,1,1.968.2,2.3,2.3,0,0,1,.446,2.643,8.135,8.135,0,0,1-2.035,2.651,4.244,4.244,0,0,1-1.439.8,2.024,2.024,0,0,1-1.513-.176,5.912,5.912,0,0,1-2.3-2.095c-.228-.329-.434-.673-.637-1.018A2.32,2.32,0,0,1,83.007,154" transform="translate(2176.752 1122.898)" fill="#b0b2bb"/>
  </g>
</svg>
