<svg xmlns="http://www.w3.org/2000/svg" width="35" height="35" viewBox="0 0 35 35">
  <g id="Group_1085" data-name="Group 1085" transform="translate(-836 -1147)">
    <rect id="Rectangle_562" data-name="Rectangle 562" width="35" height="35" rx="11" transform="translate(836 1147)" fill="#f3f3fc"/>
    <path id="graduation-cap_1_" data-name="graduation-cap (1)" d="M16.531,24.044,11,21.409a3.919,3.919,0,0,0-3.962-.034L1.446,24.044c-.021.011-.043.022-.063.034a2.768,2.768,0,0,0,.063,4.841l1.543.735v3.675a3.755,3.755,0,0,0,2.639,3.583,11.667,11.667,0,0,0,3.361.459,11.668,11.668,0,0,0,3.361-.455,3.755,3.755,0,0,0,2.639-3.583v-3.68l1.5-.717v6.186a.75.75,0,1,0,1.5,0v-9A2.511,2.511,0,0,0,16.531,24.044Zm-3.043,9.289a2.25,2.25,0,0,1-1.575,2.147,10.194,10.194,0,0,1-2.925.391,10.194,10.194,0,0,1-2.925-.391,2.25,2.25,0,0,1-1.575-2.147V30.368l2.488,1.185a3.954,3.954,0,0,0,2.029.554,3.75,3.75,0,0,0,1.933-.52l2.551-1.219Zm2.4-5.767-5.656,2.7a2.47,2.47,0,0,1-2.542-.034L2.156,27.6a1.269,1.269,0,0,1-.028-2.218L7.749,22.7a2.475,2.475,0,0,1,2.542.034l5.53,2.635a1.3,1.3,0,0,1,.667,1.117,1.275,1.275,0,0,1-.6,1.084Z" transform="translate(845.011 1135.146)" fill="#43465e"/>
  </g>
</svg>
