<svg xmlns="http://www.w3.org/2000/svg" width="33.547" height="34" viewBox="0 0 33.547 34">
  <g id="Group_1107" data-name="Group 1107" transform="translate(-1971 -521)">
    <path id="Path_797" data-name="Path 797" d="M36.367,44.878v1.294a2.438,2.438,0,0,1-2.438,2.438H5.258a2.438,2.438,0,0,1-2.438-2.438V44.878a.857.857,0,0,1,.857-.857H35.51a.857.857,0,0,1,.857.857Z" transform="translate(1968.181 506.39)" fill="#7979f7"/>
    <path id="Path_798" data-name="Path 798" d="M36.468,44.9v1.3a2.435,2.435,0,0,1-2.439,2.432H5.359a2.444,2.444,0,0,1-2.195-1.37,2.372,2.372,0,0,0,1.614.622H33.455a2.446,2.446,0,0,0,2.439-2.439V44.148a.155.155,0,0,0-.007-.056.853.853,0,0,1,.58.8Z" transform="translate(1968.08 506.369)" fill="#5e5eef"/>
    <path id="Path_799" data-name="Path 799" d="M35.442,18.9V35.775H5.04V18.894a3.135,3.135,0,0,1,3.135-3.135H32.3A3.142,3.142,0,0,1,35.442,18.9Z" transform="translate(1967.533 514.633)" fill="#c2c2ef"/>
    <path id="Path_800" data-name="Path 800" d="M35.442,19.572V36H5.04V34.857H32.7a1.6,1.6,0,0,0,1.6-1.6V18.425a3.541,3.541,0,0,0-.538-1.887,3.583,3.583,0,0,1,1.677,3.033Z" transform="translate(1967.533 514.406)" fill="#a2a2f9"/>
    <g id="Group_358" data-name="Group 358" transform="translate(1973.446 538.847)">
      <path id="Path_801" data-name="Path 801" d="M6.8,32.125a.524.524,0,0,1-.524-.524V28.22a.524.524,0,1,1,1.048,0V31.6A.524.524,0,0,1,6.8,32.125Z" transform="translate(-6.273 -27.695)" fill="#fff"/>
    </g>
    <g id="Group_360" data-name="Group 360" transform="translate(1973.446 535.726)">
      <path id="Path_802" data-name="Path 802" d="M6.8,24.845a.524.524,0,0,1-.524-.524v-.506a.524.524,0,1,1,1.048,0v.506A.524.524,0,0,1,6.8,24.845Z" transform="translate(-6.273 -23.29)" fill="#fff"/>
    </g>
    <path id="Path_803" data-name="Path 803" d="M8.986,21.583v10.95a1.66,1.66,0,0,0,1.66,1.66h21.49a1.66,1.66,0,0,0,1.66-1.66V21.583a1.66,1.66,0,0,0-1.66-1.66H10.647a1.66,1.66,0,0,0-1.66,1.66Z" transform="translate(1966.382 513.418)" fill="#fff"/>
    <path id="Path_804" data-name="Path 804" d="M18.439,11.923H30.758v5.551H18.439Z" transform="translate(1963.625 515.752)" fill="#474646"/>
    <path id="Path_805" data-name="Path 805" d="M30.758,11.923v2.384a.5.5,0,0,1-.564.225A21.014,21.014,0,0,0,19.02,14.5a.508.508,0,0,1-.58-.225V11.923H30.758Z" transform="translate(1963.625 515.752)" fill="#1b1b1b"/>
    <path id="Path_806" data-name="Path 806" d="M32.479,36.69V34.38a5.935,5.935,0,0,0-4.655-5.793c-.141-.034-.287-.056-.434-.079-.1-.011-1.24-.023-2.682-.023-.992-.006-2.13-.006-3.167,0-1.691,0-3.116.011-3.224.023-.011,0-.023.005-.034.005A5.925,5.925,0,0,0,14.4,30.841v.006a5.86,5.86,0,0,0-1.172,3.533v2.31Z" transform="translate(1965.145 510.922)" fill="#474646"/>
    <path id="Path_807" data-name="Path 807" d="M32.477,34.742v2.306H13.229V36.07h16.7a1.355,1.355,0,0,0,1.355-1.355v-.958a5.943,5.943,0,0,0-1.167-3.536,4.851,4.851,0,0,0-.433-.5,5.844,5.844,0,0,1,2.8,5.025Z" transform="translate(1965.145 510.562)" fill="#2d2c2c"/>
    <g id="Group_367" data-name="Group 367" transform="translate(1979.649 542.359)">
      <path id="Path_808" data-name="Path 808" d="M15.453,35.913h-.011a.423.423,0,0,1-.412-.433,4.593,4.593,0,0,1,.911-2.656.423.423,0,1,1,.677.506,3.752,3.752,0,0,0-.742,2.171.423.423,0,0,1-.422.412Z" transform="translate(-15.03 -32.654)" fill="#fff"/>
    </g>
    <g id="Group_369" data-name="Group 369" transform="translate(1981.584 540.895)">
      <path id="Path_809" data-name="Path 809" d="M18.184,31.857a.423.423,0,0,1-.23-.778,4.689,4.689,0,0,1,.939-.467.423.423,0,0,1,.288.795,3.832,3.832,0,0,0-.768.382.423.423,0,0,1-.229.068Z" transform="translate(-17.761 -30.587)" fill="#fff"/>
    </g>
    <g id="Group_371" data-name="Group 371" transform="translate(1987.987 539.408)">
      <path id="Path_810" data-name="Path 810" d="M31.783,28.589l-2.1,3.6a.247.247,0,0,1-.394.045l-2.2-2.063L26.8,29.9l.282-.214,1.584-1.2c1.443,0,2.587.011,2.682.023.147.023.293.045.434.079Z" transform="translate(-26.801 -28.487)" fill="#2d2c2c"/>
    </g>
    <g id="Group_372" data-name="Group 372" transform="translate(1983.428 539.408)">
      <path id="Path_811" data-name="Path 811" d="M25.487,29.9l-.282.265-2.2,2.063a.247.247,0,0,1-.394-.045l-2.249-3.669c.011,0,.023-.006.034-.006.107-.011,1.533-.023,3.223-.023l1.584,1.2Z" transform="translate(-20.364 -28.487)" fill="#2d2c2c"/>
    </g>
    <path id="Path_812" data-name="Path 812" d="M28.4,26.516v1.86a2.158,2.158,0,0,1-2.158,2.158h0a2.158,2.158,0,0,1-2.158-2.158v-1.86a3.494,3.494,0,0,0,4.315,0Z" transform="translate(1961.978 511.495)" fill="#f7c9a9"/>
    <path id="Path_813" data-name="Path 813" d="M30.048,12.33v5.523a4.945,4.945,0,1,1-9.89,0V12.33c3.054-2.367,6.374-2.158,9.89,0Z" transform="translate(1963.124 516.128)" fill="#f7c9a9"/>
    <path id="Path_814" data-name="Path 814" d="M30.048,12.33V14a20.893,20.893,0,0,0-9.89-.051V12.33c3.054-2.367,6.374-2.158,9.89,0Z" transform="translate(1963.124 516.128)" fill="#f0b68e"/>
    <path id="Path_815" data-name="Path 815" d="M30.049,20.011v.579a4.944,4.944,0,1,1-9.888,0v-.579a4.944,4.944,0,1,0,9.888,0Z" transform="translate(1963.123 513.393)" fill="#f0b68e"/>
    <path id="Path_816" data-name="Path 816" d="M34.119,15.63v3.687a1.844,1.844,0,0,0,0-3.687Z" transform="translate(1959.052 514.67)" fill="#f7c9a9"/>
    <path id="Path_817" data-name="Path 817" d="M19.414,15.63v3.687a1.844,1.844,0,0,1,0-3.687Z" transform="translate(1963.868 514.67)" fill="#f7c9a9"/>
    <path id="Path_818" data-name="Path 818" d="M35.926,18.166a1.844,1.844,0,0,1-1.806,1.845v-.341a1.846,1.846,0,0,0,1.8-1.659c0,.052.009.1.009.156Z" transform="translate(1959.051 513.976)" fill="#f0b68e"/>
    <path id="Path_819" data-name="Path 819" d="M19.416,19.669v.341a1.848,1.848,0,0,1-1.81-1.845c0-.052,0-.1.009-.156a1.85,1.85,0,0,0,1.8,1.659Z" transform="translate(1963.868 513.976)" fill="#f0b68e"/>
    <path id="Path_820" data-name="Path 820" d="M27.506,21.516a.591.591,0,0,1-.01.69.836.836,0,0,1-1.381,0,.59.59,0,0,1-.009-.691.938.938,0,0,0,.4.3.993.993,0,0,0,.6,0A.93.93,0,0,0,27.506,21.516Z" transform="translate(1961.42 512.954)" fill="#e8aa80"/>
    <path id="Path_821" data-name="Path 821" d="M30.541,19.214a.67.67,0,1,1-.669-.671A.671.671,0,0,1,30.541,19.214Z" transform="translate(1960.486 513.821)" fill="#2d2c2c"/>
    <path id="Path_822" data-name="Path 822" d="M30.47,17.906H29a.266.266,0,0,1,0-.531H30.47a.266.266,0,1,1,0,.531Z" transform="translate(1960.623 514.162)" fill="#2d2c2c"/>
    <path id="Path_823" data-name="Path 823" d="M24.525,19.214a.67.67,0,1,1-.669-.671A.671.671,0,0,1,24.525,19.214Z" transform="translate(1962.241 513.821)" fill="#2d2c2c"/>
    <path id="Path_824" data-name="Path 824" d="M24.454,17.906H22.982a.266.266,0,0,1,0-.531h1.472a.266.266,0,1,1,0,.531Z" transform="translate(1962.377 514.162)" fill="#2d2c2c"/>
    <path id="Path_825" data-name="Path 825" d="M25.2,24.223a.207.207,0,0,0-.168.329,1.879,1.879,0,0,0,2.959,0,.207.207,0,0,0-.168-.329Z" transform="translate(1961.714 512.164)" fill="#e8aa80"/>
    <path id="Path_826" data-name="Path 826" d="M34.752,18.622a.248.248,0,0,1-.017-.35.539.539,0,0,0,.046-.568.248.248,0,1,1,.441-.227,1.038,1.038,0,0,1-.121,1.128.248.248,0,0,1-.35.017Z" transform="translate(1958.891 514.171)" fill="#f0b68e"/>
    <path id="Path_827" data-name="Path 827" d="M18.977,18.606a1.038,1.038,0,0,1-.121-1.128.248.248,0,0,1,.442.226.541.541,0,0,0,.046.569.248.248,0,0,1-.367.333Z" transform="translate(1963.537 514.171)" fill="#f0b68e"/>
    <path id="Path_828" data-name="Path 828" d="M14.005,8.254h.531v4.87h-.531Z" transform="translate(1964.918 516.822)" fill="#474646"/>
    <path id="Path_829" data-name="Path 829" d="M15.123,17.119a.19.19,0,0,1-.186.22H12.784a.185.185,0,0,1-.186-.22l.389-2.243a.88.88,0,0,1,.332-.547.653.653,0,0,1-.124-.389.665.665,0,1,1,1.33,0,.621.621,0,0,1-.13.389.88.88,0,0,1,.332.547Z" transform="translate(1965.33 515.357)" fill="#f9b938"/>
    <path id="Path_830" data-name="Path 830" d="M15.123,17.133a.19.19,0,0,1-.186.22H12.784a.185.185,0,0,1-.186-.22l.017-.113h1.933a.19.19,0,0,0,.186-.22l-.394-2.243a.88.88,0,0,0-.332-.547.622.622,0,0,0,.13-.389.668.668,0,0,0-.073-.3.669.669,0,0,1,.462.631.621.621,0,0,1-.13.389.88.88,0,0,1,.332.547Z" transform="translate(1965.33 515.343)" fill="#e5a320"/>
    <path id="Path_831" data-name="Path 831" d="M32.447,6.431,23.416,2.523a.28.28,0,0,0-.222,0L14.162,6.431a.28.28,0,0,0,0,.514l5.966,2.581h6.353l5.966-2.581a.28.28,0,0,0,0-.514Z" transform="translate(1964.922 518.5)" fill="#2d2c2c"/>
    <path id="Path_832" data-name="Path 832" d="M30.807,9.046v3.321a.512.512,0,0,1-.641.5,20.986,20.986,0,0,0-11.175-.028.513.513,0,0,1-.657-.491V9.037a.8.8,0,0,1,.58-.768,20.924,20.924,0,0,1,11.3.006.8.8,0,0,1,.591.771Z" transform="translate(1963.655 517.043)" fill="#2d2c2c"/>
    <path id="Path_833" data-name="Path 833" d="M30.807,9.047v.52a.8.8,0,0,0-.591-.772,20.916,20.916,0,0,0-11.3-.005.8.8,0,0,0-.581.768v-.52a.8.8,0,0,1,.581-.768,20.917,20.917,0,0,1,11.3.006.8.8,0,0,1,.591.771Z" transform="translate(1963.656 517.043)" fill="#1b1b1b"/>
    <path id="Path_834" data-name="Path 834" d="M25.88,32.213l-.637,4.17a.474.474,0,0,0,.1.372l.316.377h1.875l.318-.377a.468.468,0,0,0,.1-.372l-.637-4.17.485-.485.265-.265L26.6,30l-.068.068-1.4,1.4.259.259Z" transform="translate(1961.673 510.48)" fill="#fc6559"/>
    <g id="Group_397" data-name="Group 397" transform="translate(1987.432 544.269)">
      <path id="Path_835" data-name="Path 835" d="M26.158,37.066l-.021,0a.141.141,0,0,1-.118-.161l.219-1.434a.143.143,0,0,1,.16-.118.141.141,0,0,1,.118.161L26.3,36.947A.141.141,0,0,1,26.158,37.066Z" transform="translate(-26.017 -35.351)" fill="#fff"/>
    </g>
    <g id="Group_399" data-name="Group 399" transform="translate(1987.739 543.482)">
      <path id="Path_836" data-name="Path 836" d="M26.592,34.729l-.021,0a.141.141,0,0,1-.118-.161l.032-.207a.141.141,0,0,1,.278.043l-.032.207A.141.141,0,0,1,26.592,34.729Z" transform="translate(-26.451 -34.24)" fill="#fff"/>
    </g>
    <path id="Path_837" data-name="Path 837" d="M27.246,30.066l-.073.051-.062-.051L27.179,30Z" transform="translate(1961.096 510.48)" fill="#f05543"/>
    <g id="Group_402" data-name="Group 402" transform="translate(1986.803 540.546)">
      <path id="Path_838" data-name="Path 838" d="M26.413,30.794a.266.266,0,0,1,.364,0l.479.449a.447.447,0,0,1,.01.642L27,32.151a.252.252,0,0,0-.071.216l.618,4.044a.468.468,0,0,1-.1.372l-.318.377h.406l.318-.377a.468.468,0,0,0,.1-.372l-.637-4.17.485-.485.265-.265-1.4-1.4-.073.051-.062-.051-.135.135L25.13,31.492l.259.259Z" transform="translate(-25.13 -30.094)" fill="#f05543"/>
    </g>
    <g id="Group_404" data-name="Group 404" transform="translate(1987.989 538.652)">
      <path id="Path_839" data-name="Path 839" d="M29.375,27.441l2.243.8-1.935,3.274a.25.25,0,0,1-.4.043L26.8,29.234l2.31-1.752a.25.25,0,0,1,.261-.041Z" transform="translate(-26.804 -27.421)" fill="#c2c2ef"/>
    </g>
    <g id="Group_405" data-name="Group 405" transform="translate(1983.668 538.652)">
      <path id="Path_840" data-name="Path 840" d="M23.018,27.441l-2.314.751,2.006,3.327a.25.25,0,0,0,.4.043l2.482-2.328-2.31-1.752a.25.25,0,0,0-.261-.041Z" transform="translate(-20.703 -27.421)" fill="#c2c2ef"/>
    </g>
    <g id="Group_407" data-name="Group 407" transform="translate(1987.987 539.346)">
      <path id="Path_841" data-name="Path 841" d="M31.619,28.529,29.68,31.8a.25.25,0,0,1-.394.045l-2.2-2.063-.282-.265.282-.214.158-.118L29.286,31.1a.25.25,0,0,0,.394-.039L31.258,28.4Z" transform="translate(-26.801 -28.4)" fill="#a2a2f9"/>
    </g>
    <g id="Group_408" data-name="Group 408" transform="translate(1983.67 539.301)">
      <path id="Path_842" data-name="Path 842" d="M25.587,29.5l-.282.265-2.2,2.063a.25.25,0,0,1-.394-.045L20.707,28.46l.372-.124,1.634,2.711a.25.25,0,0,0,.394.039l2.04-1.916.158.118Z" transform="translate(-20.707 -28.336)" fill="#a2a2f9"/>
    </g>
  </g>
</svg>
