<svg xmlns="http://www.w3.org/2000/svg" xmlns:xlink="http://www.w3.org/1999/xlink" width="38" height="38" viewBox="0 0 38 38">
  <defs>
    <clipPath id="clip-path">
      <rect id="Rectangle_113" data-name="Rectangle 113" width="18.125" height="13.604" fill="#333548"/>
    </clipPath>
  </defs>
  <g id="xce" transform="translate(-362 -106)">
    <g id="Group_1095" data-name="Group 1095">
      <circle id="Ellipse_79" data-name="Ellipse 79" cx="19" cy="19" r="19" transform="translate(362 106)" fill="#f5f6fa"/>
      <g id="Group_669" data-name="Group 669" transform="translate(371.938 118.198)">
        <g id="Group_10" data-name="Group 10" clip-path="url(#clip-path)">
          <path id="Path_10" data-name="Path 10" d="M143.445,71.637a10.965,10.965,0,0,1-6.659,5.221,9.393,9.393,0,0,1-5.154-.093.679.679,0,0,1-.085-.042c.3-.3.589-.589.885-.874a.19.19,0,0,1,.147-.022,8.547,8.547,0,0,0,7.508-1.963,11.1,11.1,0,0,0,2.044-2.245.181.181,0,0,0,0-.246,11.515,11.515,0,0,0-2.38-2.508l-.17-.133.823-.824a11.763,11.763,0,0,1,3.041,3.445Z" transform="translate(-125.32 -64.694)" fill="#333548"/>
          <path id="Path_11" data-name="Path 11" d="M4.04,11.072a11.647,11.647,0,0,1-2.32-1.849A12.717,12.717,0,0,1,.149,7.243a.727.727,0,0,1,0-.883,11.084,11.084,0,0,1,6.08-4.8,9.428,9.428,0,0,1,6.659.374.227.227,0,0,0,.3-.06q.838-.853,1.69-1.692a.563.563,0,0,1,.962.26.585.585,0,0,1-.195.574Q14.5,2.149,13.366,3.291,8.331,8.327,3.3,13.363a.619.619,0,0,1-.6.227.566.566,0,0,1-.274-.958q.712-.716,1.428-1.428a1.525,1.525,0,0,1,.187-.132M11,4.007l1.144-1.144a.278.278,0,0,0-.047-.026,8.258,8.258,0,0,0-5.819-.1A10.191,10.191,0,0,0,1.283,6.7c-.071.1-.029.156.022.231a11.074,11.074,0,0,0,2.513,2.6c.33.244.68.461.982.664L6.256,8.738A3.4,3.4,0,0,1,11,4.007m-.825.851a2.2,2.2,0,0,0-2.774.4,2.18,2.18,0,0,0-.284,2.661l3.058-3.057" transform="translate(0 0)" fill="#333548"/>
          <path id="Path_12" data-name="Path 12" d="M172.447,129.695c.36-.358.683-.683,1.012-1a.3.3,0,0,1,.163-.052,2.253,2.253,0,0,0,1.952-1.949.3.3,0,0,1,.051-.164c.319-.329.645-.652.975-.982a3.246,3.246,0,0,1-.7,3.091,3.393,3.393,0,0,1-3.451,1.058" transform="translate(-164.284 -119.603)" fill="#333548"/>
        </g>
      </g>
    </g>
  </g>
</svg>
